<?xml version="1.0" encoding="utf-8"?>
<!-- Generator: Adobe Illustrator 25.0.0, SVG Export Plug-In . SVG Version: 6.00 Build 0)  -->
<svg version="1.1" id="Layer_1" xmlns="http://www.w3.org/2000/svg" xmlns:xlink="http://www.w3.org/1999/xlink" x="0px" y="0px"
	 viewBox="0 0 135.33 81.37" style="enable-background:new 0 0 135.33 81.37;" xml:space="preserve">
<style type="text/css">
	.st0{fill:url(#SVGID_1_);}
	.st1{fill:url(#SVGID_2_);}
	.st2{fill:url(#SVGID_3_);}
	.st3{fill:url(#SVGID_4_);}
	.st4{fill:url(#SVGID_5_);}
	.st5{fill:url(#SVGID_6_);}
	.st6{fill:url(#SVGID_7_);}
	.st7{fill:url(#SVGID_8_);}
	.st8{fill:url(#SVGID_9_);}
	.st9{fill:url(#SVGID_10_);}
	.st10{fill:url(#SVGID_11_);}
	.st11{fill:url(#SVGID_12_);}
	.st12{fill:url(#SVGID_13_);}
	.st13{fill:url(#SVGID_14_);}
	.st14{fill:url(#SVGID_15_);}
	.st15{fill:url(#SVGID_16_);}
	.st16{fill:url(#SVGID_17_);}
	.st17{fill:url(#SVGID_18_);}
	.st18{fill:url(#SVGID_19_);}
	.st19{fill:url(#SVGID_20_);}
	.st20{fill:url(#SVGID_21_);}
	.st21{fill:url(#SVGID_22_);}
	.st22{fill:url(#SVGID_23_);}
	.st23{fill:url(#SVGID_24_);}
	.st24{fill:url(#SVGID_25_);}
	.st25{fill:url(#SVGID_26_);}
	.st26{fill:url(#SVGID_27_);}
	.st27{fill:url(#SVGID_28_);}
	.st28{fill:url(#SVGID_29_);}
	.st29{fill:url(#SVGID_30_);}
	.st30{fill:url(#SVGID_31_);}
	.st31{fill:url(#SVGID_32_);}
	.st32{fill:url(#SVGID_33_);}
	.st33{fill:url(#SVGID_34_);}
	.st34{fill:url(#SVGID_35_);}
	.st35{fill:url(#SVGID_36_);}
	.st36{fill:url(#SVGID_37_);}
	.st37{fill:url(#SVGID_38_);}
	.st38{fill:url(#SVGID_39_);}
	.st39{fill:url(#SVGID_40_);}
	.st40{fill:url(#SVGID_41_);}
	.st41{fill:url(#SVGID_42_);}
	.st42{fill:url(#SVGID_43_);}
	.st43{fill:url(#SVGID_44_);}
	.st44{fill:url(#SVGID_45_);}
	.st45{fill:url(#SVGID_46_);}
	.st46{fill:url(#SVGID_47_);}
	.st47{fill:url(#SVGID_48_);}
	.st48{fill:url(#SVGID_49_);}
	.st49{fill:url(#SVGID_50_);}
	.st50{fill:url(#SVGID_51_);}
	.st51{fill:url(#SVGID_52_);}
	.st52{fill:url(#SVGID_53_);}
	.st53{fill:url(#SVGID_54_);}
	.st54{fill:url(#SVGID_55_);}
	.st55{fill:url(#SVGID_56_);}
	.st56{fill:url(#SVGID_57_);}
	.st57{fill:url(#SVGID_58_);}
	.st58{fill:url(#SVGID_59_);}
	.st59{fill:url(#SVGID_60_);}
	.st60{fill:url(#SVGID_61_);}
	.st61{fill:url(#SVGID_62_);}
	.st62{fill:url(#SVGID_63_);}
	.st63{fill:url(#SVGID_64_);}
	.st64{fill:url(#SVGID_65_);}
	.st65{fill:url(#SVGID_66_);}
	.st66{fill:url(#SVGID_67_);}
	.st67{fill:url(#SVGID_68_);}
	.st68{fill:url(#SVGID_69_);}
	.st69{fill:url(#SVGID_70_);}
	.st70{fill:url(#SVGID_71_);}
	.st71{fill:url(#SVGID_72_);}
	.st72{fill:url(#SVGID_73_);}
	.st73{fill:url(#SVGID_74_);}
	.st74{fill:url(#SVGID_75_);}
	.st75{fill:url(#SVGID_76_);}
	.st76{fill:url(#SVGID_77_);}
	.st77{fill:url(#SVGID_78_);}
	.st78{fill:url(#SVGID_79_);}
	.st79{fill:url(#SVGID_80_);}
	.st80{fill:url(#SVGID_81_);}
	.st81{fill:url(#SVGID_82_);}
	.st82{fill:url(#SVGID_83_);}
	.st83{fill:url(#SVGID_84_);}
	.st84{fill:url(#SVGID_85_);}
	.st85{fill:url(#SVGID_86_);}
	.st86{fill:url(#SVGID_87_);}
	.st87{fill:url(#SVGID_88_);}
	.st88{fill:url(#SVGID_89_);}
	.st89{fill:url(#SVGID_90_);}
	.st90{fill:url(#SVGID_91_);}
	.st91{fill:url(#SVGID_92_);}
	.st92{fill:url(#SVGID_93_);}
	.st93{fill:url(#SVGID_94_);}
	.st94{fill:url(#SVGID_95_);}
	.st95{fill:url(#SVGID_96_);}
	.st96{fill:url(#SVGID_97_);}
	.st97{fill:url(#SVGID_98_);}
	.st98{fill:url(#SVGID_99_);}
	.st99{fill:url(#SVGID_100_);}
	.st100{fill:url(#SVGID_101_);}
	.st101{fill:url(#SVGID_102_);}
	.st102{fill:url(#SVGID_103_);}
	.st103{fill:url(#SVGID_104_);}
	.st104{fill:url(#SVGID_105_);}
	.st105{fill:url(#SVGID_106_);}
	.st106{fill:url(#SVGID_107_);}
	.st107{fill:url(#SVGID_108_);}
	.st108{fill:url(#SVGID_109_);}
	.st109{fill:url(#SVGID_110_);}
	.st110{fill:url(#SVGID_111_);}
	.st111{fill:url(#SVGID_112_);}
	.st112{fill:url(#SVGID_113_);}
	.st113{fill:url(#SVGID_114_);}
	.st114{fill:url(#SVGID_115_);}
	.st115{fill:url(#SVGID_116_);}
	.st116{fill:url(#SVGID_117_);}
	.st117{fill:url(#SVGID_118_);}
	.st118{fill:url(#SVGID_119_);}
	.st119{fill:url(#SVGID_120_);}
	.st120{fill:url(#SVGID_121_);}
	.st121{fill:url(#SVGID_122_);}
	.st122{fill:url(#SVGID_123_);}
	.st123{fill:url(#SVGID_124_);}
	.st124{fill:url(#SVGID_125_);}
	.st125{fill:url(#SVGID_126_);}
	.st126{fill:url(#SVGID_127_);}
	.st127{fill:url(#SVGID_128_);}
	.st128{fill:url(#SVGID_129_);}
	.st129{fill:url(#SVGID_130_);}
	.st130{fill:url(#SVGID_131_);}
	.st131{fill:url(#SVGID_132_);}
	.st132{fill:url(#SVGID_133_);}
	.st133{fill:url(#SVGID_134_);}
	.st134{fill:url(#SVGID_135_);}
	.st135{fill:url(#SVGID_136_);}
	.st136{fill:url(#SVGID_137_);}
	.st137{fill:url(#SVGID_138_);}
	.st138{fill:url(#SVGID_139_);}
	.st139{fill:url(#SVGID_140_);}
	.st140{fill:url(#SVGID_141_);}
	.st141{fill:url(#SVGID_142_);}
	.st142{fill:url(#SVGID_143_);}
	.st143{fill:url(#SVGID_144_);}
	.st144{fill:url(#SVGID_145_);}
	.st145{fill:url(#SVGID_146_);}
	.st146{fill:url(#SVGID_147_);}
</style>
<g>
	<g>
		<g>
			<g>
				<linearGradient id="SVGID_1_" gradientUnits="userSpaceOnUse" x1="119.1413" y1="75.1585" x2="18.284" y2="25.5846">
					<stop  offset="0.1034" style="stop-color:#2F4FAA"/>
					<stop  offset="1" style="stop-color:#00A0CB"/>
				</linearGradient>
				<path class="st0" d="M67.67,74.82C30.3,74.82,0,44.32,0,44.32s30.3,37.05,67.67,37.05c37.37,0,67.67-37.05,67.67-37.05
					S105.04,74.82,67.67,74.82z"/>
			</g>
		</g>
		<g>
			<g>
				
					<linearGradient id="SVGID_2_" gradientUnits="userSpaceOnUse" x1="-1480.5598" y1="1775.8931" x2="-1581.4171" y2="1726.3192" gradientTransform="matrix(-1 0 0 -1 -1487.4261 1770.7714)">
					<stop  offset="0.1034" style="stop-color:#2F4FAA"/>
					<stop  offset="1" style="stop-color:#00A0CB"/>
				</linearGradient>
				<path class="st1" d="M67.67,6.55c37.37,0,67.67,30.5,67.67,30.5S105.04,0,67.67,0C30.3,0,0,37.05,0,37.05S30.3,6.55,67.67,6.55z
					"/>
			</g>
		</g>
	</g>
</g>
<g>
	<g>
		<linearGradient id="SVGID_3_" gradientUnits="userSpaceOnUse" x1="123.2255" y1="77.5172" x2="22.3682" y2="27.9433">
			<stop  offset="0.1034" style="stop-color:#2F4FAA"/>
			<stop  offset="1" style="stop-color:#00A0CB"/>
		</linearGradient>
		<path class="st2" d="M77.1,56.37c-0.31-1.22-0.69-2.42-1.13-3.61L77.1,56.37z"/>
		<linearGradient id="SVGID_4_" gradientUnits="userSpaceOnUse" x1="134.584" y1="54.4085" x2="33.7267" y2="4.8346">
			<stop  offset="0.1034" style="stop-color:#2F4FAA"/>
			<stop  offset="1" style="stop-color:#00A0CB"/>
		</linearGradient>
		<path class="st3" d="M92.62,33.79c0.04,0.02,0.09,0.03,0.13,0.05C92.71,33.82,92.66,33.81,92.62,33.79z"/>
		<linearGradient id="SVGID_5_" gradientUnits="userSpaceOnUse" x1="134.5495" y1="54.4788" x2="33.6922" y2="4.9049">
			<stop  offset="0.1034" style="stop-color:#2F4FAA"/>
			<stop  offset="1" style="stop-color:#00A0CB"/>
		</linearGradient>
		<path class="st4" d="M91.53,33.34c0.08,0.04,0.15,0.07,0.23,0.11C91.68,33.41,91.61,33.37,91.53,33.34z"/>
		<linearGradient id="SVGID_6_" gradientUnits="userSpaceOnUse" x1="134.556" y1="54.4654" x2="33.6987" y2="4.8915">
			<stop  offset="0.1034" style="stop-color:#2F4FAA"/>
			<stop  offset="1" style="stop-color:#00A0CB"/>
		</linearGradient>
		<path class="st5" d="M90.61,32.86c0.06,0.03,0.12,0.06,0.18,0.1C90.73,32.93,90.67,32.89,90.61,32.86z"/>
		<linearGradient id="SVGID_7_" gradientUnits="userSpaceOnUse" x1="134.6852" y1="54.2026" x2="33.8279" y2="4.6286">
			<stop  offset="0.1034" style="stop-color:#2F4FAA"/>
			<stop  offset="1" style="stop-color:#00A0CB"/>
		</linearGradient>
		<path class="st6" d="M88.85,31.66c0.02,0.02,0.04,0.04,0.07,0.05C88.9,31.7,88.88,31.68,88.85,31.66z"/>
		<linearGradient id="SVGID_8_" gradientUnits="userSpaceOnUse" x1="134.681" y1="54.2112" x2="33.8237" y2="4.6373">
			<stop  offset="0.1034" style="stop-color:#2F4FAA"/>
			<stop  offset="1" style="stop-color:#00A0CB"/>
		</linearGradient>
		<path class="st7" d="M93.8,34.15c0.07,0.02,0.14,0.03,0.2,0.04C93.94,34.18,93.87,34.16,93.8,34.15z"/>
		<linearGradient id="SVGID_9_" gradientUnits="userSpaceOnUse" x1="134.8246" y1="53.9189" x2="33.9674" y2="4.345">
			<stop  offset="0.1034" style="stop-color:#2F4FAA"/>
			<stop  offset="1" style="stop-color:#00A0CB"/>
		</linearGradient>
		<path class="st8" d="M94.89,34.35c0.11,0.02,0.23,0.03,0.34,0.04C95.12,34.38,95.01,34.37,94.89,34.35z"/>
		<linearGradient id="SVGID_10_" gradientUnits="userSpaceOnUse" x1="78.0763" y1="10.87" x2="76.5886" y2="10.1387">
			<stop  offset="0.1034" style="stop-color:#2F4FAA"/>
			<stop  offset="1" style="stop-color:#00A0CB"/>
		</linearGradient>
		<polygon class="st9" points="77.33,10.5 77.33,10.5 77.33,10.5 		"/>
		<linearGradient id="SVGID_11_" gradientUnits="userSpaceOnUse" x1="135.2166" y1="53.1214" x2="34.3594" y2="3.5475">
			<stop  offset="0.1034" style="stop-color:#2F4FAA"/>
			<stop  offset="1" style="stop-color:#00A0CB"/>
		</linearGradient>
		<path class="st10" d="M83.01,27.45c0,0.01,0.01,0.01,0.01,0.02C83.01,27.46,83.01,27.46,83.01,27.45
			C83.01,27.45,83.01,27.45,83.01,27.45z"/>
		<linearGradient id="SVGID_12_" gradientUnits="userSpaceOnUse" x1="140.4668" y1="42.4401" x2="39.6095" y2="-7.1339">
			<stop  offset="0.1034" style="stop-color:#2F4FAA"/>
			<stop  offset="1" style="stop-color:#00A0CB"/>
		</linearGradient>
		<path class="st11" d="M76.72,10.76c0.08-0.08,0.18-0.15,0.29-0.19C76.9,10.61,76.81,10.67,76.72,10.76
			c-0.25,0.25-0.32,0.63-0.19,0.94C76.41,11.38,76.47,11.01,76.72,10.76z"/>
		<linearGradient id="SVGID_13_" gradientUnits="userSpaceOnUse" x1="135.2302" y1="53.0939" x2="34.3729" y2="3.5199">
			<stop  offset="0.1034" style="stop-color:#2F4FAA"/>
			<stop  offset="1" style="stop-color:#00A0CB"/>
		</linearGradient>
		<path class="st12" d="M86.15,28.96c0.01,0.01,0.01,0.02,0.02,0.03C86.17,28.98,86.16,28.97,86.15,28.96z"/>
		<linearGradient id="SVGID_14_" gradientUnits="userSpaceOnUse" x1="137.6068" y1="48.2587" x2="98.1576" y2="28.8685">
			<stop  offset="0.1034" style="stop-color:#2F4FAA"/>
			<stop  offset="1" style="stop-color:#00A0CB"/>
		</linearGradient>
		<polygon class="st13" points="80.22,20.05 80.22,20.06 80.22,20.05 		"/>
		<linearGradient id="SVGID_15_" gradientUnits="userSpaceOnUse" x1="136.8361" y1="49.8267" x2="35.9788" y2="0.2528">
			<stop  offset="0.1034" style="stop-color:#2F4FAA"/>
			<stop  offset="1" style="stop-color:#00A0CB"/>
		</linearGradient>
		<path class="st14" d="M82.9,23.24c0.02,0.06,0.06,0.12,0.08,0.19C82.96,23.37,82.93,23.31,82.9,23.24z"/>
		<linearGradient id="SVGID_16_" gradientUnits="userSpaceOnUse" x1="135.0192" y1="53.523" x2="34.1619" y2="3.9491">
			<stop  offset="0.1034" style="stop-color:#2F4FAA"/>
			<stop  offset="1" style="stop-color:#00A0CB"/>
		</linearGradient>
		<path class="st15" d="M96.43,34.48c-0.12,0-0.23-0.01-0.34-0.01C96.2,34.47,96.31,34.48,96.43,34.48z"/>
		<linearGradient id="SVGID_17_" gradientUnits="userSpaceOnUse" x1="136.1688" y1="51.1842" x2="35.3116" y2="1.6102">
			<stop  offset="0.1034" style="stop-color:#2F4FAA"/>
			<stop  offset="1" style="stop-color:#00A0CB"/>
		</linearGradient>
		<path class="st16" d="M83.63,24.94c0.18,0.38,0.39,0.75,0.6,1.12C84.02,25.7,83.81,25.33,83.63,24.94z"/>
		<linearGradient id="SVGID_18_" gradientUnits="userSpaceOnUse" x1="135.5843" y1="52.3735" x2="34.727" y2="2.7996">
			<stop  offset="0.1034" style="stop-color:#2F4FAA"/>
			<stop  offset="1" style="stop-color:#00A0CB"/>
		</linearGradient>
		<path class="st17" d="M85.75,28.37c-0.01-0.01-0.01-0.01-0.02-0.02c-0.42-0.52-0.82-1.1-1.23-1.76c0.33,0.56,0.79,1.26,1.38,2.02
			C85.85,28.53,85.81,28.45,85.75,28.37z"/>
		<linearGradient id="SVGID_19_" gradientUnits="userSpaceOnUse" x1="134.7925" y1="53.9843" x2="33.9352" y2="4.4104">
			<stop  offset="0.1034" style="stop-color:#2F4FAA"/>
			<stop  offset="1" style="stop-color:#00A0CB"/>
		</linearGradient>
		<path class="st18" d="M88.07,31c0.03,0.03,0.06,0.05,0.09,0.08C88.13,31.06,88.1,31.03,88.07,31z"/>
		<linearGradient id="SVGID_20_" gradientUnits="userSpaceOnUse" x1="138.3256" y1="46.7963" x2="37.4683" y2="-2.7777">
			<stop  offset="0.1034" style="stop-color:#2F4FAA"/>
			<stop  offset="1" style="stop-color:#00A0CB"/>
		</linearGradient>
		<path class="st19" d="M84.13,18.39c0.88,7.41,6.13,13.03,12.48,13.37c0.02,0,0.03,0,0.05,0c0.46,0,0.84-0.36,0.86-0.82
			c0.02-0.48-0.34-0.88-0.82-0.91c-5.51-0.29-10.07-5.27-10.85-11.85c-0.15-1.27-0.45-2.56-0.9-3.84c-0.16-0.45-0.65-0.69-1.1-0.53
			c-0.45,0.16-0.69,0.65-0.53,1.1C83.72,16.08,84,17.25,84.13,18.39z"/>
		<linearGradient id="SVGID_21_" gradientUnits="userSpaceOnUse" x1="82.595" y1="21.2148" x2="77.8512" y2="18.8831">
			<stop  offset="0.1034" style="stop-color:#2F4FAA"/>
			<stop  offset="1" style="stop-color:#00A0CB"/>
		</linearGradient>
		<polygon class="st20" points="80.22,20.05 80.22,20.05 80.22,20.05 		"/>
		<linearGradient id="SVGID_22_" gradientUnits="userSpaceOnUse" x1="140.7803" y1="41.8023" x2="39.923" y2="-7.7716">
			<stop  offset="0.1034" style="stop-color:#2F4FAA"/>
			<stop  offset="1" style="stop-color:#00A0CB"/>
		</linearGradient>
		<path class="st21" d="M77.01,10.57c0.1-0.04,0.21-0.06,0.32-0.06C77.22,10.5,77.11,10.53,77.01,10.57z"/>
		<linearGradient id="SVGID_23_" gradientUnits="userSpaceOnUse" x1="140.0258" y1="43.3373" x2="39.1685" y2="-6.2366">
			<stop  offset="0.1034" style="stop-color:#2F4FAA"/>
			<stop  offset="1" style="stop-color:#00A0CB"/>
		</linearGradient>
		<path class="st22" d="M77.39,12.7c-0.16-0.19-0.33-0.37-0.51-0.55C77.05,12.33,77.22,12.51,77.39,12.7z"/>
		<linearGradient id="SVGID_24_" gradientUnits="userSpaceOnUse" x1="139.8064" y1="43.7835" x2="38.9491" y2="-5.7904">
			<stop  offset="0.1034" style="stop-color:#2F4FAA"/>
			<stop  offset="1" style="stop-color:#00A0CB"/>
		</linearGradient>
		<path class="st23" d="M77.98,13.46c-0.05-0.08-0.12-0.15-0.17-0.22C77.86,13.31,77.92,13.39,77.98,13.46z"/>
		<linearGradient id="SVGID_25_" gradientUnits="userSpaceOnUse" x1="83.9903" y1="21.9008" x2="76.4564" y2="18.1977">
			<stop  offset="0.1034" style="stop-color:#2F4FAA"/>
			<stop  offset="1" style="stop-color:#00A0CB"/>
		</linearGradient>
		<polygon class="st24" points="80.22,20.05 80.22,20.05 80.22,20.05 		"/>
		<linearGradient id="SVGID_26_" gradientUnits="userSpaceOnUse" x1="83.9903" y1="21.9008" x2="76.4564" y2="18.1977">
			<stop  offset="0.1034" style="stop-color:#2F4FAA"/>
			<stop  offset="1" style="stop-color:#00A0CB"/>
		</linearGradient>
		<polygon class="st25" points="80.22,20.05 80.22,20.05 80.22,20.05 		"/>
		<linearGradient id="SVGID_27_" gradientUnits="userSpaceOnUse" x1="139.4519" y1="44.5048" x2="38.5946" y2="-5.0691">
			<stop  offset="0.1034" style="stop-color:#2F4FAA"/>
			<stop  offset="1" style="stop-color:#00A0CB"/>
		</linearGradient>
		<path class="st26" d="M81.92,19.74C81.92,19.74,81.92,19.74,81.92,19.74c-0.06-0.35-0.12-0.7-0.16-1.07
			c-0.36-3.06-1.68-5.79-3.81-7.92c2.13,2.12,3.45,4.86,3.81,7.92C81.8,19.02,81.86,19.38,81.92,19.74z"/>
		<linearGradient id="SVGID_28_" gradientUnits="userSpaceOnUse" x1="139.4519" y1="44.5048" x2="38.5946" y2="-5.0691">
			<stop  offset="0.1034" style="stop-color:#2F4FAA"/>
			<stop  offset="1" style="stop-color:#00A0CB"/>
		</linearGradient>
		<path class="st27" d="M81.92,19.74C81.92,19.74,81.92,19.74,81.92,19.74c-0.06-0.35-0.12-0.7-0.16-1.07
			c-0.36-3.06-1.68-5.79-3.81-7.92c2.13,2.12,3.45,4.86,3.81,7.92C81.8,19.02,81.86,19.38,81.92,19.74z"/>
		<linearGradient id="SVGID_29_" gradientUnits="userSpaceOnUse" x1="140.7149" y1="41.9353" x2="39.8576" y2="-7.6386">
			<stop  offset="0.1034" style="stop-color:#2F4FAA"/>
			<stop  offset="1" style="stop-color:#00A0CB"/>
		</linearGradient>
		<path class="st28" d="M77.33,10.5C77.33,10.5,77.33,10.5,77.33,10.5c-0.11,0-0.22,0.02-0.33,0.06c-0.1,0.04-0.2,0.11-0.29,0.19
			C76.89,10.59,77.11,10.5,77.33,10.5z"/>
		<linearGradient id="SVGID_30_" gradientUnits="userSpaceOnUse" x1="140.7149" y1="41.9353" x2="39.8576" y2="-7.6386">
			<stop  offset="0.1034" style="stop-color:#2F4FAA"/>
			<stop  offset="1" style="stop-color:#00A0CB"/>
		</linearGradient>
		<path class="st29" d="M77.33,10.5C77.33,10.5,77.33,10.5,77.33,10.5c-0.11,0-0.22,0.02-0.33,0.06c-0.1,0.04-0.2,0.11-0.29,0.19
			C76.89,10.59,77.11,10.5,77.33,10.5z"/>
		<linearGradient id="SVGID_31_" gradientUnits="userSpaceOnUse" x1="138.957" y1="45.5118" x2="38.0997" y2="-4.0622">
			<stop  offset="0.1034" style="stop-color:#2F4FAA"/>
			<stop  offset="1" style="stop-color:#00A0CB"/>
		</linearGradient>
		<path class="st30" d="M94.21,26.8c0.12,0.06,0.26,0.09,0.39,0.09c0.32,0,0.62-0.17,0.77-0.48c0.21-0.43,0.04-0.95-0.38-1.16
			c-2.28-1.15-4.25-3.83-4.89-6.67c-0.1-0.47-0.57-0.76-1.03-0.65c-0.47,0.11-0.76,0.57-0.65,1.03
			C89.17,22.33,91.45,25.41,94.21,26.8z"/>
		<linearGradient id="SVGID_32_" gradientUnits="userSpaceOnUse" x1="135.9296" y1="51.6708" x2="35.0724" y2="2.0969">
			<stop  offset="0.1034" style="stop-color:#2F4FAA"/>
			<stop  offset="1" style="stop-color:#00A0CB"/>
		</linearGradient>
		<path class="st31" d="M84.5,26.58c-0.1-0.17-0.18-0.34-0.27-0.51C84.32,26.24,84.4,26.41,84.5,26.58
			C84.5,26.58,84.5,26.58,84.5,26.58z"/>
		<linearGradient id="SVGID_33_" gradientUnits="userSpaceOnUse" x1="137.4626" y1="48.552" x2="36.6053" y2="-1.0219">
			<stop  offset="0.1034" style="stop-color:#2F4FAA"/>
			<stop  offset="1" style="stop-color:#00A0CB"/>
		</linearGradient>
		<path class="st32" d="M81.93,19.75c0.21,1.17,0.54,2.34,0.97,3.49C82.47,22.09,82.14,20.92,81.93,19.75
			C81.92,19.74,81.92,19.75,81.93,19.75C81.93,19.75,81.93,19.75,81.93,19.75z"/>
		<linearGradient id="SVGID_34_" gradientUnits="userSpaceOnUse" x1="135.2103" y1="53.1344" x2="59.6017" y2="15.9708">
			<stop  offset="0.1034" style="stop-color:#2F4FAA"/>
			<stop  offset="1" style="stop-color:#00A0CB"/>
		</linearGradient>
		<polygon class="st33" points="83.03,27.49 83.03,27.49 83.02,27.48 		"/>
		<linearGradient id="SVGID_35_" gradientUnits="userSpaceOnUse" x1="136.5699" y1="50.3682" x2="35.7126" y2="0.7943">
			<stop  offset="0.1034" style="stop-color:#2F4FAA"/>
			<stop  offset="1" style="stop-color:#00A0CB"/>
		</linearGradient>
		<path class="st34" d="M82.98,23.43c0.2,0.51,0.41,1.02,0.65,1.52C83.39,24.45,83.18,23.94,82.98,23.43z"/>
		<linearGradient id="SVGID_36_" gradientUnits="userSpaceOnUse" x1="136.9559" y1="49.5829" x2="36.0986" y2="8.934342e-03">
			<stop  offset="0.1034" style="stop-color:#2F4FAA"/>
			<stop  offset="1" style="stop-color:#00A0CB"/>
		</linearGradient>
		<path class="st35" d="M84.5,26.58C84.5,26.58,84.5,26.58,84.5,26.58c-0.1-0.16-0.18-0.34-0.27-0.51c-0.21-0.37-0.41-0.74-0.6-1.12
			c-0.24-0.5-0.45-1-0.65-1.52c-0.02-0.06-0.06-0.12-0.08-0.19c-0.43-1.15-0.76-2.32-0.97-3.49C82.36,22.22,83.22,24.52,84.5,26.58z
			"/>
		<linearGradient id="SVGID_37_" gradientUnits="userSpaceOnUse" x1="136.9559" y1="49.5829" x2="36.0986" y2="8.934342e-03">
			<stop  offset="0.1034" style="stop-color:#2F4FAA"/>
			<stop  offset="1" style="stop-color:#00A0CB"/>
		</linearGradient>
		<path class="st36" d="M84.5,26.58C84.5,26.58,84.5,26.58,84.5,26.58c-0.1-0.16-0.18-0.34-0.27-0.51c-0.21-0.37-0.41-0.74-0.6-1.12
			c-0.24-0.5-0.45-1-0.65-1.52c-0.02-0.06-0.06-0.12-0.08-0.19c-0.43-1.15-0.76-2.32-0.97-3.49C82.36,22.22,83.22,24.52,84.5,26.58z
			"/>
		<linearGradient id="SVGID_38_" gradientUnits="userSpaceOnUse" x1="94.6105" y1="25.9782" x2="69.2411" y2="13.5085">
			<stop  offset="0.1034" style="stop-color:#2F4FAA"/>
			<stop  offset="1" style="stop-color:#00A0CB"/>
		</linearGradient>
		<polygon class="st37" points="81.92,19.75 81.92,19.74 81.92,19.74 		"/>
		<linearGradient id="SVGID_39_" gradientUnits="userSpaceOnUse" x1="94.6105" y1="25.9782" x2="69.2411" y2="13.5085">
			<stop  offset="0.1034" style="stop-color:#2F4FAA"/>
			<stop  offset="1" style="stop-color:#00A0CB"/>
		</linearGradient>
		<polygon class="st38" points="81.92,19.75 81.92,19.74 81.92,19.74 		"/>
		<linearGradient id="SVGID_40_" gradientUnits="userSpaceOnUse" x1="94.6105" y1="25.9782" x2="69.2411" y2="13.5085">
			<stop  offset="0.1034" style="stop-color:#2F4FAA"/>
			<stop  offset="1" style="stop-color:#00A0CB"/>
		</linearGradient>
		<polygon class="st39" points="81.92,19.75 81.92,19.74 81.92,19.74 		"/>
		<linearGradient id="SVGID_41_" gradientUnits="userSpaceOnUse" x1="114.8668" y1="94.5227" x2="14.0095" y2="44.9488">
			<stop  offset="0.1034" style="stop-color:#2F4FAA"/>
			<stop  offset="1" style="stop-color:#00A0CB"/>
		</linearGradient>
		<path class="st40" d="M42.3,56.32c-0.48,0.02-0.85,0.42-0.83,0.9c0.02,0.48,0.41,0.83,0.9,0.83c1.27-0.06,3.18,0.5,4.85,2.18
			c1.7,1.72,2.21,3.73,2.14,4.94c-0.03,0.48,0.33,0.89,0.81,0.92c0.02,0,0.04,0,0.06,0c0.45,0,0.83-0.35,0.86-0.81
			c0.13-2.09-0.87-4.49-2.63-6.26C46.71,57.28,44.35,56.22,42.3,56.32z"/>
		<linearGradient id="SVGID_42_" gradientUnits="userSpaceOnUse" x1="131.4293" y1="60.8266" x2="30.572" y2="11.2527">
			<stop  offset="0.1034" style="stop-color:#2F4FAA"/>
			<stop  offset="1" style="stop-color:#00A0CB"/>
		</linearGradient>
		<path class="st41" d="M44.71,21.05c6.07,0.32,12.18,2,17.67,4.86c0.13,0.07,0.26,0.1,0.4,0.1c0.31,0,0.61-0.17,0.77-0.47
			c0.07-0.13,0.1-0.26,0.1-0.4c0-0.31-0.17-0.61-0.47-0.77c-5.71-2.97-12.07-4.71-18.38-5.05c-0.46-0.04-0.88,0.34-0.91,0.82
			c0,0.02,0,0.03,0,0.05C43.89,20.64,44.25,21.02,44.71,21.05z"/>
		<linearGradient id="SVGID_43_" gradientUnits="userSpaceOnUse" x1="135.8525" y1="51.8277" x2="35.4359" y2="2.4704">
			<stop  offset="0.1034" style="stop-color:#2F4FAA"/>
			<stop  offset="1" style="stop-color:#00A0CB"/>
		</linearGradient>
		<path class="st42" d="M84.51,26.6c0,0-0.01-0.01-0.01-0.01C84.5,26.58,84.5,26.58,84.51,26.6C84.5,26.59,84.51,26.59,84.51,26.6z"
			/>
		<linearGradient id="SVGID_44_" gradientUnits="userSpaceOnUse" x1="133.4509" y1="56.7138" x2="32.5936" y2="7.1399">
			<stop  offset="0.1034" style="stop-color:#2F4FAA"/>
			<stop  offset="1" style="stop-color:#00A0CB"/>
		</linearGradient>
		<path class="st43" d="M48.59,17.28c4.24,0.57,8.38,1.71,12.32,3.38c0.11,0.05,0.23,0.07,0.34,0.07c0.34,0,0.66-0.2,0.8-0.53
			c0.05-0.11,0.07-0.23,0.07-0.34c0-0.34-0.2-0.66-0.53-0.8c-4.08-1.74-8.37-2.92-12.77-3.51c-0.47-0.07-0.91,0.27-0.97,0.74
			c-0.01,0.04-0.01,0.08-0.01,0.12C47.84,16.85,48.16,17.22,48.59,17.28z"/>
		<linearGradient id="SVGID_45_" gradientUnits="userSpaceOnUse" x1="135.2757" y1="53.0012" x2="34.4184" y2="3.4273">
			<stop  offset="0.1034" style="stop-color:#2F4FAA"/>
			<stop  offset="1" style="stop-color:#00A0CB"/>
		</linearGradient>
		<path class="st44" d="M86.15,28.96c-0.09-0.12-0.18-0.23-0.27-0.34c0,0.01,0.02,0.02,0.02,0.04
			C85.98,28.75,86.07,28.86,86.15,28.96z"/>
		<linearGradient id="SVGID_46_" gradientUnits="userSpaceOnUse" x1="135.6633" y1="52.2126" x2="34.806" y2="2.6387">
			<stop  offset="0.1034" style="stop-color:#2F4FAA"/>
			<stop  offset="1" style="stop-color:#00A0CB"/>
		</linearGradient>
		<path class="st45" d="M66.58,13.06c0.68-0.19,1.38-0.29,2.09-0.29c3.79,0,6.87,2.77,7.32,6.59c0.58,4.87,2.76,9.86,5.99,13.69
			c3.94,4.68,9.14,7.26,14.64,7.26c0.47,0,0.99-0.03,1.58-0.08c0.45-0.04,0.79-0.42,0.79-0.86c0-0.03,0-0.05,0-0.08
			c-0.04-0.47-0.45-0.81-0.94-0.79c-0.54,0.05-1,0.07-1.42,0.07c-4.98,0-9.71-2.36-13.31-6.64c-3.01-3.58-5.05-8.23-5.59-12.78
			c-0.56-4.7-4.36-8.12-9.04-8.12c-0.86,0-1.72,0.12-2.55,0.35c-0.38,0.11-0.63,0.45-0.63,0.83c0,0.08,0.01,0.16,0.03,0.23
			C65.64,12.92,66.12,13.19,66.58,13.06z"/>
		<linearGradient id="SVGID_47_" gradientUnits="userSpaceOnUse" x1="137.4992" y1="48.4776" x2="36.6419" y2="-1.0963">
			<stop  offset="0.1034" style="stop-color:#2F4FAA"/>
			<stop  offset="1" style="stop-color:#00A0CB"/>
		</linearGradient>
		<path class="st46" d="M60.02,11.51c0.84,0.29,1.68,0.59,2.51,0.91c0.1,0.04,0.21,0.06,0.31,0.06c0.35,0,0.67-0.21,0.81-0.55
			c0.04-0.1,0.06-0.21,0.06-0.31c0-0.35-0.21-0.67-0.55-0.81c-0.82-0.32-1.67-0.63-2.59-0.94c-0.45-0.15-0.94,0.09-1.1,0.54
			c-0.03,0.09-0.05,0.18-0.05,0.28C59.43,11.06,59.66,11.39,60.02,11.51z"/>
		<linearGradient id="SVGID_48_" gradientUnits="userSpaceOnUse" x1="134.9191" y1="53.7268" x2="34.0618" y2="4.1529">
			<stop  offset="0.1034" style="stop-color:#2F4FAA"/>
			<stop  offset="1" style="stop-color:#00A0CB"/>
		</linearGradient>
		<path class="st47" d="M95.24,34.4c0.28,0.03,0.56,0.05,0.85,0.07C95.8,34.45,95.51,34.43,95.24,34.4z"/>
		<linearGradient id="SVGID_49_" gradientUnits="userSpaceOnUse" x1="134.6282" y1="54.3185" x2="33.7709" y2="4.7446">
			<stop  offset="0.1034" style="stop-color:#2F4FAA"/>
			<stop  offset="1" style="stop-color:#00A0CB"/>
		</linearGradient>
		<path class="st48" d="M92.75,33.84c0.34,0.12,0.69,0.22,1.05,0.31C93.44,34.06,93.09,33.96,92.75,33.84z"/>
		<linearGradient id="SVGID_50_" gradientUnits="userSpaceOnUse" x1="134.5659" y1="54.4453" x2="33.7086" y2="4.8714">
			<stop  offset="0.1034" style="stop-color:#2F4FAA"/>
			<stop  offset="1" style="stop-color:#00A0CB"/>
		</linearGradient>
		<path class="st49" d="M91.76,33.44c0.28,0.12,0.56,0.24,0.86,0.34C92.33,33.68,92.04,33.57,91.76,33.44z"/>
		<linearGradient id="SVGID_51_" gradientUnits="userSpaceOnUse" x1="134.7461" y1="54.0787" x2="33.8888" y2="4.5048">
			<stop  offset="0.1034" style="stop-color:#2F4FAA"/>
			<stop  offset="1" style="stop-color:#00A0CB"/>
		</linearGradient>
		<path class="st50" d="M94.01,34.19c0.29,0.07,0.58,0.12,0.89,0.16C94.59,34.31,94.3,34.26,94.01,34.19z"/>
		<linearGradient id="SVGID_52_" gradientUnits="userSpaceOnUse" x1="134.5507" y1="54.4763" x2="33.6934" y2="4.9023">
			<stop  offset="0.1034" style="stop-color:#2F4FAA"/>
			<stop  offset="1" style="stop-color:#00A0CB"/>
		</linearGradient>
		<path class="st51" d="M90.79,32.96c0.24,0.13,0.49,0.26,0.74,0.38C91.28,33.22,91.03,33.09,90.79,32.96z"/>
		<linearGradient id="SVGID_53_" gradientUnits="userSpaceOnUse" x1="140.8443" y1="41.672" x2="39.987" y2="-7.9019">
			<stop  offset="0.1034" style="stop-color:#2F4FAA"/>
			<stop  offset="1" style="stop-color:#00A0CB"/>
		</linearGradient>
		<path class="st52" d="M77.33,10.5c0.22,0,0.44,0.08,0.61,0.25C77.78,10.59,77.55,10.5,77.33,10.5z"/>
		<linearGradient id="SVGID_54_" gradientUnits="userSpaceOnUse" x1="134.6195" y1="54.3362" x2="33.7622" y2="4.7623">
			<stop  offset="0.1034" style="stop-color:#2F4FAA"/>
			<stop  offset="1" style="stop-color:#00A0CB"/>
		</linearGradient>
		<path class="st53" d="M88.92,31.72c0.52,0.41,1.09,0.79,1.69,1.14C90.01,32.51,89.44,32.13,88.92,31.72z"/>
		<linearGradient id="SVGID_55_" gradientUnits="userSpaceOnUse" x1="129.1554" y1="65.453" x2="28.2981" y2="15.879">
			<stop  offset="0.1034" style="stop-color:#2F4FAA"/>
			<stop  offset="1" style="stop-color:#00A0CB"/>
		</linearGradient>
		<path class="st54" d="M41.76,25.11l0.3-0.01c0.21-0.01,0.43-0.02,0.64-0.01c2.6,0.01,5.24,0.3,7.83,0.86
			c0.06,0.01,0.12,0.02,0.18,0.02c0.4,0,0.76-0.28,0.84-0.68c0.01-0.06,0.02-0.12,0.02-0.18c0-0.4-0.28-0.76-0.68-0.85
			c-0.04-0.01-0.08-0.02-0.13-0.03c-2.67-0.57-5.38-0.86-8.06-0.87c-0.23,0-0.46,0.01-0.69,0.01l-0.29,0.01
			c-0.48,0.01-0.86,0.4-0.85,0.88C40.89,24.74,41.29,25.17,41.76,25.11z"/>
		<linearGradient id="SVGID_56_" gradientUnits="userSpaceOnUse" x1="134.7375" y1="54.0963" x2="33.8802" y2="4.5223">
			<stop  offset="0.1034" style="stop-color:#2F4FAA"/>
			<stop  offset="1" style="stop-color:#00A0CB"/>
		</linearGradient>
		<path class="st55" d="M88.16,31.08c0.22,0.2,0.45,0.39,0.69,0.58C88.61,31.47,88.38,31.28,88.16,31.08z"/>
		<linearGradient id="SVGID_57_" gradientUnits="userSpaceOnUse" x1="135.0132" y1="53.5354" x2="34.1559" y2="3.9615">
			<stop  offset="0.1034" style="stop-color:#2F4FAA"/>
			<stop  offset="1" style="stop-color:#00A0CB"/>
		</linearGradient>
		<path class="st56" d="M88.07,31c-0.73-0.66-1.36-1.35-1.9-2.01C86.71,29.65,87.34,30.34,88.07,31z"/>
		<linearGradient id="SVGID_58_" gradientUnits="userSpaceOnUse" x1="136.4123" y1="50.6889" x2="35.555" y2="1.1149">
			<stop  offset="0.1034" style="stop-color:#2F4FAA"/>
			<stop  offset="1" style="stop-color:#00A0CB"/>
		</linearGradient>
		<path class="st57" d="M80.22,20.06C80.22,20.06,80.22,20.06,80.22,20.06c0.47,2.67,1.41,5.17,2.78,7.39
			C83,27.44,83,27.43,82.99,27.42C81.62,25.19,80.69,22.71,80.22,20.06z"/>
		<linearGradient id="SVGID_59_" gradientUnits="userSpaceOnUse" x1="135.176" y1="53.2041" x2="34.3187" y2="3.6302">
			<stop  offset="0.1034" style="stop-color:#2F4FAA"/>
			<stop  offset="1" style="stop-color:#00A0CB"/>
		</linearGradient>
		<path class="st58" d="M97.65,34.44c-0.42,0.03-0.83,0.04-1.22,0.04C96.83,34.48,97.23,34.48,97.65,34.44z"/>
		<linearGradient id="SVGID_60_" gradientUnits="userSpaceOnUse" x1="92.9084" y1="26.2812" x2="67.5389" y2="13.8114">
			<stop  offset="0.1034" style="stop-color:#2F4FAA"/>
			<stop  offset="1" style="stop-color:#00A0CB"/>
		</linearGradient>
		<polygon class="st59" points="80.22,20.04 80.22,20.05 80.22,20.05 		"/>
		<linearGradient id="SVGID_61_" gradientUnits="userSpaceOnUse" x1="137.8237" y1="47.8174" x2="36.9664" y2="-1.7565">
			<stop  offset="0.1034" style="stop-color:#2F4FAA"/>
			<stop  offset="1" style="stop-color:#00A0CB"/>
		</linearGradient>
		<path class="st60" d="M80.04,18.88c0.05,0.39,0.11,0.78,0.18,1.17c0,0,0,0,0,0C80.15,19.65,80.09,19.26,80.04,18.88z"/>
		<linearGradient id="SVGID_62_" gradientUnits="userSpaceOnUse" x1="139.9" y1="43.5933" x2="39.0427" y2="-5.9807">
			<stop  offset="0.1034" style="stop-color:#2F4FAA"/>
			<stop  offset="1" style="stop-color:#00A0CB"/>
		</linearGradient>
		<path class="st61" d="M77.81,13.24c-0.14-0.18-0.27-0.37-0.42-0.54C77.53,12.87,77.67,13.06,77.81,13.24z"/>
		<linearGradient id="SVGID_63_" gradientUnits="userSpaceOnUse" x1="138.9079" y1="45.6116" x2="38.0506" y2="-3.9624">
			<stop  offset="0.1034" style="stop-color:#2F4FAA"/>
			<stop  offset="1" style="stop-color:#00A0CB"/>
		</linearGradient>
		<path class="st62" d="M80.04,18.88c-0.24-2-0.94-3.84-2.06-5.41C79.1,15.04,79.8,16.88,80.04,18.88z"/>
		<linearGradient id="SVGID_64_" gradientUnits="userSpaceOnUse" x1="140.1034" y1="43.1793" x2="39.2462" y2="-6.3946">
			<stop  offset="0.1034" style="stop-color:#2F4FAA"/>
			<stop  offset="1" style="stop-color:#00A0CB"/>
		</linearGradient>
		<path class="st63" d="M76.72,11.98c0.05,0.05,0.1,0.11,0.15,0.17c-0.03-0.03-0.06-0.07-0.09-0.1C76.76,12.03,76.75,12,76.72,11.98
			z"/>
		<linearGradient id="SVGID_65_" gradientUnits="userSpaceOnUse" x1="135.5056" y1="52.5334" x2="34.6484" y2="2.9595">
			<stop  offset="0.1034" style="stop-color:#2F4FAA"/>
			<stop  offset="1" style="stop-color:#00A0CB"/>
		</linearGradient>
		<path class="st64" d="M53.91,14.05c2.63,0.61,5.24,1.44,7.77,2.47c0.11,0.04,0.22,0.06,0.32,0.06c0.34,0,0.67-0.2,0.8-0.54
			c0.04-0.11,0.06-0.22,0.06-0.32c0-0.34-0.2-0.67-0.54-0.8c-2.61-1.06-5.31-1.91-8.03-2.55c-0.46-0.11-0.93,0.18-1.04,0.65
			c-0.02,0.07-0.02,0.13-0.02,0.2C53.24,13.6,53.51,13.96,53.91,14.05z"/>
		<linearGradient id="SVGID_66_" gradientUnits="userSpaceOnUse" x1="126.7906" y1="70.2641" x2="25.9333" y2="20.6901">
			<stop  offset="0.1034" style="stop-color:#2F4FAA"/>
			<stop  offset="1" style="stop-color:#00A0CB"/>
		</linearGradient>
		<path class="st65" d="M95.29,54.29c-0.03-0.16-0.06-0.32-0.1-0.48c-0.1-0.47-0.56-0.76-1.03-0.66c-0.41,0.09-0.68,0.45-0.68,0.85
			c0,0.06,0.01,0.12,0.02,0.18l0.14,0.71c0.08,0.41,0.44,0.69,0.85,0.69c0.06,0,0.11-0.01,0.17-0.02c0.41-0.08,0.69-0.44,0.69-0.85
			c0-0.06-0.01-0.11-0.02-0.17L95.29,54.29z"/>
		<linearGradient id="SVGID_67_" gradientUnits="userSpaceOnUse" x1="125.1864" y1="73.5277" x2="24.3291" y2="23.9538">
			<stop  offset="0.1034" style="stop-color:#2F4FAA"/>
			<stop  offset="1" style="stop-color:#00A0CB"/>
		</linearGradient>
		<path class="st66" d="M90.8,53.11c-0.12-0.46-0.59-0.74-1.05-0.62c-0.39,0.1-0.65,0.45-0.65,0.84c0,0.07,0.01,0.14,0.03,0.22
			c0.52,2.03,0.91,4.13,1.16,6.25c0.05,0.44,0.42,0.76,0.86,0.76c0.03,0,0.07,0,0.1-0.01c0.44-0.05,0.76-0.42,0.76-0.86
			c0-0.03,0-0.07-0.01-0.1C91.74,57.39,91.34,55.21,90.8,53.11z"/>
		<linearGradient id="SVGID_68_" gradientUnits="userSpaceOnUse" x1="134.2795" y1="55.0281" x2="33.4222" y2="5.4542">
			<stop  offset="0.1034" style="stop-color:#2F4FAA"/>
			<stop  offset="1" style="stop-color:#00A0CB"/>
		</linearGradient>
		<path class="st67" d="M69.47,20.01c-0.05-0.47-0.48-0.81-0.96-0.76c-0.44,0.05-0.77,0.43-0.77,0.86c0,0.03,0,0.07,0.01,0.1
			c0.26,2.22,0.73,4.35,1.38,6.4c0.74,0.14,1.43,0.4,2.08,0.74C70.36,25.03,69.76,22.57,69.47,20.01z"/>
		<linearGradient id="SVGID_69_" gradientUnits="userSpaceOnUse" x1="127.6659" y1="68.4832" x2="26.8086" y2="18.9093">
			<stop  offset="0.1034" style="stop-color:#2F4FAA"/>
			<stop  offset="1" style="stop-color:#00A0CB"/>
		</linearGradient>
		<path class="st68" d="M72.03,40.24l0.1,0.32c5.93,7,14.38,11.44,23.82,11.81c0.01,0,0.02,0,0.03,0c0.46,0,0.85-0.37,0.86-0.83
			c0-0.01,0-0.02,0-0.03c0-0.46-0.36-0.85-0.83-0.86c-9.05-0.35-17.15-4.67-22.78-11.46C72.87,39.57,72.48,39.93,72.03,40.24z"/>
		<linearGradient id="SVGID_70_" gradientUnits="userSpaceOnUse" x1="123.9246" y1="76.0948" x2="23.0673" y2="26.5209">
			<stop  offset="0.1034" style="stop-color:#2F4FAA"/>
			<stop  offset="1" style="stop-color:#00A0CB"/>
		</linearGradient>
		<path class="st69" d="M85.99,51.28c-0.15-0.45-0.63-0.7-1.09-0.56c-0.37,0.12-0.6,0.46-0.6,0.82c0,0.09,0.01,0.18,0.04,0.27
			c1.24,3.83,1.93,7.8,2.06,11.79c0.01,0.47,0.4,0.84,0.86,0.84c0.01,0,0.02,0,0.03,0c0.47-0.02,0.84-0.4,0.84-0.86
			c0-0.01,0-0.02,0-0.03C88,59.39,87.28,55.26,85.99,51.28z"/>
		<linearGradient id="SVGID_71_" gradientUnits="userSpaceOnUse" x1="129.6216" y1="64.5043" x2="28.7643" y2="14.9304">
			<stop  offset="0.1034" style="stop-color:#2F4FAA"/>
			<stop  offset="1" style="stop-color:#00A0CB"/>
		</linearGradient>
		<path class="st70" d="M97.07,48.27l0.22-0.01c0.48,0,0.86-0.39,0.86-0.86s-0.39-0.86-0.86-0.86l-0.21,0.01
			c-8.8-0.04-16.75-4.56-21.88-11.65c-0.08,0.74-0.28,1.45-0.56,2.12C80.09,43.9,88.17,48.23,97.07,48.27z"/>
		<linearGradient id="SVGID_72_" gradientUnits="userSpaceOnUse" x1="133.852" y1="55.8978" x2="32.9947" y2="6.3239">
			<stop  offset="0.1034" style="stop-color:#2F4FAA"/>
			<stop  offset="1" style="stop-color:#00A0CB"/>
		</linearGradient>
		<path class="st71" d="M97.91,42.62c-6.72,0.42-13.04-2.47-17.74-8.05c-3.7-4.39-6.07-9.82-6.52-14.9
			c-0.01-0.14-0.06-0.28-0.13-0.39c-0.45-2.49-2.32-4.08-4.85-4.08c-1.49,0-2.84,0.59-3.8,1.66c-0.8,0.9-1.24,2.08-1.24,3.29
			c0,0.2,0.01,0.39,0.03,0.59c0.25,2.15,0.68,4.24,1.25,6.24c0.53-0.21,1.09-0.36,1.67-0.44c-0.56-1.93-0.97-3.93-1.21-6
			c-0.02-0.14-0.02-0.27-0.02-0.41c0-0.79,0.28-1.54,0.8-2.13c0.62-0.7,1.51-1.08,2.51-1.08c1.78,0,2.97,1.09,3.19,2.93
			c0.28,2.32,0.82,4.6,1.62,6.77c0.03,0.07,0.06,0.13,0.1,0.19c1.2,3.12,2.98,6.15,5.27,8.87c5.06,6.01,11.9,9.11,19.17,8.66
			c0.46-0.03,0.81-0.41,0.81-0.86c0-0.02,0-0.04,0-0.06C98.8,42.95,98.38,42.6,97.91,42.62z"/>
		<linearGradient id="SVGID_73_" gradientUnits="userSpaceOnUse" x1="117.8609" y1="88.4313" x2="17.0036" y2="38.8574">
			<stop  offset="0.1034" style="stop-color:#2F4FAA"/>
			<stop  offset="1" style="stop-color:#00A0CB"/>
		</linearGradient>
		<path class="st72" d="M77.98,68.51c-0.04,0.36,0.14,0.69,0.44,0.85C78.12,69.2,77.94,68.87,77.98,68.51z"/>
		<linearGradient id="SVGID_74_" gradientUnits="userSpaceOnUse" x1="126.2084" y1="71.4486" x2="25.3511" y2="21.8747">
			<stop  offset="0.1034" style="stop-color:#2F4FAA"/>
			<stop  offset="1" style="stop-color:#00A0CB"/>
		</linearGradient>
		<path class="st73" d="M38.69,28.57c-0.02-0.24,0.06-0.46,0.2-0.63C38.75,28.1,38.67,28.33,38.69,28.57
			c0.03,0.36,0.27,0.64,0.59,0.75C38.97,29.21,38.72,28.92,38.69,28.57z"/>
		<linearGradient id="SVGID_75_" gradientUnits="userSpaceOnUse" x1="120.5814" y1="82.8966" x2="19.7241" y2="33.3226">
			<stop  offset="0.1034" style="stop-color:#2F4FAA"/>
			<stop  offset="1" style="stop-color:#00A0CB"/>
		</linearGradient>
		<path class="st74" d="M83.03,61.57c-0.46,0.03-0.81,0.41-0.81,0.86c0,0.02,0,0.04,0,0.06c0.05,0.77,0.07,1.56,0.07,2.35
			c0,0.55-0.01,1.09-0.04,1.64c0,0.01,0,0.02,0,0.04c0,0.46,0.36,0.84,0.83,0.86c0.01,0,0.02,0,0.04,0c0.46,0,0.84-0.36,0.86-0.83
			c0.02-0.57,0.04-1.15,0.04-1.72c0-0.83-0.03-1.66-0.08-2.46C83.91,61.9,83.49,61.54,83.03,61.57z"/>
		<linearGradient id="SVGID_76_" gradientUnits="userSpaceOnUse" x1="123.9226" y1="76.099" x2="23.0653" y2="26.525">
			<stop  offset="0.1034" style="stop-color:#2F4FAA"/>
			<stop  offset="1" style="stop-color:#00A0CB"/>
		</linearGradient>
		<path class="st75" d="M82.82,60.65c0.04,0,0.08,0,0.11-0.01c0.43-0.06,0.75-0.43,0.75-0.86c0-0.04,0-0.08-0.01-0.12
			c-0.41-3.08-1.18-6.13-2.28-9.07c-0.17-0.45-0.67-0.67-1.11-0.5c-0.35,0.13-0.56,0.46-0.56,0.81c0,0.1,0.02,0.2,0.06,0.3
			c1.06,2.81,1.8,5.73,2.19,8.68C82.02,60.33,82.39,60.65,82.82,60.65z"/>
		<linearGradient id="SVGID_77_" gradientUnits="userSpaceOnUse" x1="130.2681" y1="63.1891" x2="29.4108" y2="13.6152">
			<stop  offset="0.1034" style="stop-color:#2F4FAA"/>
			<stop  offset="1" style="stop-color:#00A0CB"/>
		</linearGradient>
		<path class="st76" d="M62.38,28.62c-2.63-1.47-5.4-2.65-8.27-3.52c-0.45-0.14-0.94,0.12-1.08,0.58C53.01,25.76,53,25.85,53,25.93
			c0,0.37,0.24,0.71,0.61,0.83c2.65,0.8,5.22,1.89,7.66,3.22C61.59,29.49,61.96,29.03,62.38,28.62z"/>
		<linearGradient id="SVGID_78_" gradientUnits="userSpaceOnUse" x1="98.7186" y1="29.1445" x2="61.7339" y2="10.9656">
			<stop  offset="0.1034" style="stop-color:#2F4FAA"/>
			<stop  offset="1" style="stop-color:#00A0CB"/>
		</linearGradient>
		<polygon class="st77" points="80.22,20.05 80.22,20.05 80.22,20.06 80.22,20.06 		"/>
		<linearGradient id="SVGID_79_" gradientUnits="userSpaceOnUse" x1="98.7186" y1="29.1445" x2="61.7339" y2="10.9656">
			<stop  offset="0.1034" style="stop-color:#2F4FAA"/>
			<stop  offset="1" style="stop-color:#00A0CB"/>
		</linearGradient>
		<polygon class="st78" points="80.22,20.05 80.22,20.05 80.22,20.06 80.22,20.06 		"/>
		<linearGradient id="SVGID_80_" gradientUnits="userSpaceOnUse" x1="134.8158" y1="53.937" x2="33.9585" y2="4.363">
			<stop  offset="0.1034" style="stop-color:#2F4FAA"/>
			<stop  offset="1" style="stop-color:#00A0CB"/>
		</linearGradient>
		<path class="st79" d="M84.5,26.59c0.24,0.41,0.11,0.93-0.3,1.18c-0.14,0.08-0.29,0.12-0.45,0.12c-0.29,0-0.57-0.15-0.73-0.41
			c3.31,5.6,8.21,8.73,13.59,8.73c0.39,0,0.79-0.02,1.19-0.05c0.48-0.04,0.83-0.46,0.79-0.93c-0.04-0.47-0.46-0.84-0.93-0.79
			c-0.42,0.03-0.82,0.04-1.22,0.04c-0.12,0-0.23-0.01-0.34-0.01c-0.29-0.01-0.57-0.03-0.85-0.07c-0.11-0.01-0.23-0.03-0.34-0.04
			c-0.3-0.04-0.6-0.1-0.89-0.16c-0.07-0.02-0.14-0.03-0.2-0.04c-0.36-0.09-0.71-0.19-1.05-0.31c-0.04-0.02-0.09-0.03-0.13-0.05
			c-0.29-0.11-0.58-0.22-0.86-0.34c-0.08-0.03-0.15-0.07-0.23-0.11c-0.25-0.12-0.5-0.25-0.74-0.38c-0.06-0.03-0.12-0.06-0.18-0.1
			c-0.61-0.35-1.17-0.73-1.69-1.14c-0.02-0.02-0.04-0.04-0.07-0.05c-0.24-0.19-0.47-0.38-0.69-0.58c-0.03-0.03-0.06-0.05-0.09-0.08
			c-0.73-0.66-1.36-1.35-1.9-2.01c-0.01-0.01-0.01-0.02-0.02-0.03c-0.08-0.1-0.17-0.21-0.25-0.31c0-0.01-0.01-0.02-0.02-0.04
			C85.3,27.86,84.84,27.15,84.5,26.59C84.51,26.59,84.5,26.59,84.5,26.59C84.5,26.59,84.5,26.59,84.5,26.59z"/>
		<linearGradient id="SVGID_81_" gradientUnits="userSpaceOnUse" x1="134.8158" y1="53.937" x2="33.9585" y2="4.363">
			<stop  offset="0.1034" style="stop-color:#2F4FAA"/>
			<stop  offset="1" style="stop-color:#00A0CB"/>
		</linearGradient>
		<path class="st80" d="M84.5,26.59c0.24,0.41,0.11,0.93-0.3,1.18c-0.14,0.08-0.29,0.12-0.45,0.12c-0.29,0-0.57-0.15-0.73-0.41
			c3.31,5.6,8.21,8.73,13.59,8.73c0.39,0,0.79-0.02,1.19-0.05c0.48-0.04,0.83-0.46,0.79-0.93c-0.04-0.47-0.46-0.84-0.93-0.79
			c-0.42,0.03-0.82,0.04-1.22,0.04c-0.12,0-0.23-0.01-0.34-0.01c-0.29-0.01-0.57-0.03-0.85-0.07c-0.11-0.01-0.23-0.03-0.34-0.04
			c-0.3-0.04-0.6-0.1-0.89-0.16c-0.07-0.02-0.14-0.03-0.2-0.04c-0.36-0.09-0.71-0.19-1.05-0.31c-0.04-0.02-0.09-0.03-0.13-0.05
			c-0.29-0.11-0.58-0.22-0.86-0.34c-0.08-0.03-0.15-0.07-0.23-0.11c-0.25-0.12-0.5-0.25-0.74-0.38c-0.06-0.03-0.12-0.06-0.18-0.1
			c-0.61-0.35-1.17-0.73-1.69-1.14c-0.02-0.02-0.04-0.04-0.07-0.05c-0.24-0.19-0.47-0.38-0.69-0.58c-0.03-0.03-0.06-0.05-0.09-0.08
			c-0.73-0.66-1.36-1.35-1.9-2.01c-0.01-0.01-0.01-0.02-0.02-0.03c-0.08-0.1-0.17-0.21-0.25-0.31c0-0.01-0.01-0.02-0.02-0.04
			C85.3,27.86,84.84,27.15,84.5,26.59C84.51,26.59,84.5,26.59,84.5,26.59C84.5,26.59,84.5,26.59,84.5,26.59z"/>
		<linearGradient id="SVGID_82_" gradientUnits="userSpaceOnUse" x1="135.2195" y1="53.1156" x2="34.3622" y2="3.5417">
			<stop  offset="0.1034" style="stop-color:#2F4FAA"/>
			<stop  offset="1" style="stop-color:#00A0CB"/>
		</linearGradient>
		<path class="st81" d="M83.01,27.45c0,0.01,0.01,0.01,0.01,0.02c0,0,0,0.01,0.01,0.01c-0.01-0.02-0.02-0.04-0.03-0.05
			C83,27.43,83,27.44,83.01,27.45z"/>
		<linearGradient id="SVGID_83_" gradientUnits="userSpaceOnUse" x1="135.2195" y1="53.1156" x2="34.3622" y2="3.5417">
			<stop  offset="0.1034" style="stop-color:#2F4FAA"/>
			<stop  offset="1" style="stop-color:#00A0CB"/>
		</linearGradient>
		<path class="st82" d="M83.01,27.45c0,0.01,0.01,0.01,0.01,0.02c0,0,0,0.01,0.01,0.01c-0.01-0.02-0.02-0.04-0.03-0.05
			C83,27.43,83,27.44,83.01,27.45z"/>
		<linearGradient id="SVGID_84_" gradientUnits="userSpaceOnUse" x1="140.1141" y1="43.1577" x2="39.2568" y2="-6.4162">
			<stop  offset="0.1034" style="stop-color:#2F4FAA"/>
			<stop  offset="1" style="stop-color:#00A0CB"/>
		</linearGradient>
		<path class="st83" d="M76.73,11.98C76.72,11.98,76.72,11.98,76.73,11.98c0.02,0.02,0.04,0.04,0.06,0.07
			C76.77,12.03,76.75,12,76.73,11.98z"/>
		<linearGradient id="SVGID_85_" gradientUnits="userSpaceOnUse" x1="140.1141" y1="43.1577" x2="39.2568" y2="-6.4162">
			<stop  offset="0.1034" style="stop-color:#2F4FAA"/>
			<stop  offset="1" style="stop-color:#00A0CB"/>
		</linearGradient>
		<path class="st84" d="M76.73,11.98C76.72,11.98,76.72,11.98,76.73,11.98c0.02,0.02,0.04,0.04,0.06,0.07
			C76.77,12.03,76.75,12,76.73,11.98z"/>
		<linearGradient id="SVGID_86_" gradientUnits="userSpaceOnUse" x1="140.8443" y1="41.6721" x2="39.987" y2="-7.9018">
			<stop  offset="0.1034" style="stop-color:#2F4FAA"/>
			<stop  offset="1" style="stop-color:#00A0CB"/>
		</linearGradient>
		<path class="st85" d="M77.94,10.76c-0.17-0.17-0.39-0.25-0.61-0.25v0C77.55,10.5,77.77,10.59,77.94,10.76z"/>
		<linearGradient id="SVGID_87_" gradientUnits="userSpaceOnUse" x1="140.8443" y1="41.6721" x2="39.987" y2="-7.9018">
			<stop  offset="0.1034" style="stop-color:#2F4FAA"/>
			<stop  offset="1" style="stop-color:#00A0CB"/>
		</linearGradient>
		<path class="st86" d="M77.94,10.76c-0.17-0.17-0.39-0.25-0.61-0.25v0C77.55,10.5,77.77,10.59,77.94,10.76z"/>
		<linearGradient id="SVGID_88_" gradientUnits="userSpaceOnUse" x1="80.2227" y1="20.0483" x2="80.2227" y2="20.0483">
			<stop  offset="0.1034" style="stop-color:#2F4FAA"/>
			<stop  offset="1" style="stop-color:#00A0CB"/>
		</linearGradient>
		<rect x="80.22" y="20.05" class="st87" width="0" height="0"/>
		<linearGradient id="SVGID_89_" gradientUnits="userSpaceOnUse" x1="80.2227" y1="20.0483" x2="80.2227" y2="20.0483">
			<stop  offset="0.1034" style="stop-color:#2F4FAA"/>
			<stop  offset="1" style="stop-color:#00A0CB"/>
		</linearGradient>
		<rect x="80.22" y="20.05" class="st88" width="0" height="0"/>
		<linearGradient id="SVGID_90_" gradientUnits="userSpaceOnUse" x1="138.8591" y1="45.711" x2="38.0018" y2="-3.863">
			<stop  offset="0.1034" style="stop-color:#2F4FAA"/>
			<stop  offset="1" style="stop-color:#00A0CB"/>
		</linearGradient>
		<path class="st89" d="M80.22,20.04c-0.07-0.39-0.13-0.77-0.18-1.16c-0.31-2.63-1.44-4.99-3.26-6.83c0.03,0.03,0.06,0.07,0.09,0.1
			c0.17,0.18,0.35,0.36,0.51,0.55c0.15,0.17,0.28,0.36,0.42,0.54c0.06,0.08,0.12,0.15,0.17,0.22c1.12,1.57,1.82,3.42,2.06,5.41
			C80.09,19.26,80.15,19.65,80.22,20.04L80.22,20.04z"/>
		<linearGradient id="SVGID_91_" gradientUnits="userSpaceOnUse" x1="138.8591" y1="45.711" x2="38.0018" y2="-3.863">
			<stop  offset="0.1034" style="stop-color:#2F4FAA"/>
			<stop  offset="1" style="stop-color:#00A0CB"/>
		</linearGradient>
		<path class="st90" d="M80.22,20.04c-0.07-0.39-0.13-0.77-0.18-1.16c-0.31-2.63-1.44-4.99-3.26-6.83c0.03,0.03,0.06,0.07,0.09,0.1
			c0.17,0.18,0.35,0.36,0.51,0.55c0.15,0.17,0.28,0.36,0.42,0.54c0.06,0.08,0.12,0.15,0.17,0.22c1.12,1.57,1.82,3.42,2.06,5.41
			C80.09,19.26,80.15,19.65,80.22,20.04L80.22,20.04z"/>
		<linearGradient id="SVGID_92_" gradientUnits="userSpaceOnUse" x1="83.9903" y1="21.9008" x2="76.4564" y2="18.1977">
			<stop  offset="0.1034" style="stop-color:#2F4FAA"/>
			<stop  offset="1" style="stop-color:#00A0CB"/>
		</linearGradient>
		<polygon class="st91" points="80.22,20.05 80.22,20.05 80.22,20.05 80.22,20.05 		"/>
		<linearGradient id="SVGID_93_" gradientUnits="userSpaceOnUse" x1="83.9903" y1="21.9008" x2="76.4564" y2="18.1977">
			<stop  offset="0.1034" style="stop-color:#2F4FAA"/>
			<stop  offset="1" style="stop-color:#00A0CB"/>
		</linearGradient>
		<polygon class="st92" points="80.22,20.05 80.22,20.05 80.22,20.05 80.22,20.05 		"/>
		<linearGradient id="SVGID_94_" gradientUnits="userSpaceOnUse" x1="83.9903" y1="21.9008" x2="76.4564" y2="18.1977">
			<stop  offset="0.1034" style="stop-color:#2F4FAA"/>
			<stop  offset="1" style="stop-color:#00A0CB"/>
		</linearGradient>
		<polygon class="st93" points="80.22,20.05 80.22,20.05 80.22,20.05 80.22,20.05 		"/>
		<linearGradient id="SVGID_95_" gradientUnits="userSpaceOnUse" x1="139.2377" y1="44.9406" x2="38.3804" y2="-4.6333">
			<stop  offset="0.1034" style="stop-color:#2F4FAA"/>
			<stop  offset="1" style="stop-color:#00A0CB"/>
		</linearGradient>
		<path class="st94" d="M76.72,10.76c-0.25,0.25-0.32,0.63-0.19,0.94c0.04,0.1,0.11,0.2,0.19,0.29c0,0,0,0,0,0
			c0.02,0.02,0.04,0.05,0.06,0.07c1.81,1.84,2.94,4.2,3.26,6.83c0.05,0.39,0.11,0.77,0.18,1.16c-0.08-0.47,0.23-0.91,0.7-1
			c0.47-0.08,0.92,0.23,1,0.7c-0.07-0.36-0.12-0.72-0.17-1.07c-0.36-3.06-1.68-5.79-3.81-7.92c-0.17-0.17-0.39-0.25-0.61-0.25
			C77.11,10.5,76.89,10.59,76.72,10.76z"/>
		<linearGradient id="SVGID_96_" gradientUnits="userSpaceOnUse" x1="139.2377" y1="44.9406" x2="38.3804" y2="-4.6333">
			<stop  offset="0.1034" style="stop-color:#2F4FAA"/>
			<stop  offset="1" style="stop-color:#00A0CB"/>
		</linearGradient>
		<path class="st95" d="M76.72,10.76c-0.25,0.25-0.32,0.63-0.19,0.94c0.04,0.1,0.11,0.2,0.19,0.29c0,0,0,0,0,0
			c0.02,0.02,0.04,0.05,0.06,0.07c1.81,1.84,2.94,4.2,3.26,6.83c0.05,0.39,0.11,0.77,0.18,1.16c-0.08-0.47,0.23-0.91,0.7-1
			c0.47-0.08,0.92,0.23,1,0.7c-0.07-0.36-0.12-0.72-0.17-1.07c-0.36-3.06-1.68-5.79-3.81-7.92c-0.17-0.17-0.39-0.25-0.61-0.25
			C77.11,10.5,76.89,10.59,76.72,10.76z"/>
		<linearGradient id="SVGID_97_" gradientUnits="userSpaceOnUse" x1="139.2377" y1="44.9406" x2="38.3804" y2="-4.6333">
			<stop  offset="0.1034" style="stop-color:#2F4FAA"/>
			<stop  offset="1" style="stop-color:#00A0CB"/>
		</linearGradient>
		<path class="st96" d="M76.72,10.76c-0.25,0.25-0.32,0.63-0.19,0.94c0.04,0.1,0.11,0.2,0.19,0.29c0,0,0,0,0,0
			c0.02,0.02,0.04,0.05,0.06,0.07c1.81,1.84,2.94,4.2,3.26,6.83c0.05,0.39,0.11,0.77,0.18,1.16c-0.08-0.47,0.23-0.91,0.7-1
			c0.47-0.08,0.92,0.23,1,0.7c-0.07-0.36-0.12-0.72-0.17-1.07c-0.36-3.06-1.68-5.79-3.81-7.92c-0.17-0.17-0.39-0.25-0.61-0.25
			C77.11,10.5,76.89,10.59,76.72,10.76z"/>
		<linearGradient id="SVGID_98_" gradientUnits="userSpaceOnUse" x1="136.4163" y1="50.6808" x2="35.559" y2="1.1069">
			<stop  offset="0.1034" style="stop-color:#2F4FAA"/>
			<stop  offset="1" style="stop-color:#00A0CB"/>
		</linearGradient>
		<path class="st97" d="M80.22,20.06c0.46,2.66,1.4,5.13,2.77,7.37C81.64,25.12,80.68,22.58,80.22,20.06z"/>
		<linearGradient id="SVGID_99_" gradientUnits="userSpaceOnUse" x1="136.4163" y1="50.6808" x2="35.559" y2="1.1069">
			<stop  offset="0.1034" style="stop-color:#2F4FAA"/>
			<stop  offset="1" style="stop-color:#00A0CB"/>
		</linearGradient>
		<path class="st98" d="M80.22,20.06c0.46,2.66,1.4,5.13,2.77,7.37C81.64,25.12,80.68,22.58,80.22,20.06z"/>
		<linearGradient id="SVGID_100_" gradientUnits="userSpaceOnUse" x1="95.8336" y1="27.718" x2="64.6145" y2="12.373">
			<stop  offset="0.1034" style="stop-color:#2F4FAA"/>
			<stop  offset="1" style="stop-color:#00A0CB"/>
		</linearGradient>
		<polygon class="st99" points="80.22,20.04 80.22,20.04 80.22,20.05 		"/>
		<linearGradient id="SVGID_101_" gradientUnits="userSpaceOnUse" x1="95.8336" y1="27.718" x2="64.6145" y2="12.373">
			<stop  offset="0.1034" style="stop-color:#2F4FAA"/>
			<stop  offset="1" style="stop-color:#00A0CB"/>
		</linearGradient>
		<polygon class="st100" points="80.22,20.04 80.22,20.04 80.22,20.05 		"/>
		<linearGradient id="SVGID_102_" gradientUnits="userSpaceOnUse" x1="138.0582" y1="47.3403" x2="97.8062" y2="27.5554">
			<stop  offset="0.1034" style="stop-color:#2F4FAA"/>
			<stop  offset="1" style="stop-color:#00A0CB"/>
		</linearGradient>
		<polygon class="st101" points="81.93,19.75 81.92,19.75 81.92,19.75 		"/>
		<linearGradient id="SVGID_103_" gradientUnits="userSpaceOnUse" x1="138.0582" y1="47.3403" x2="97.8062" y2="27.5554">
			<stop  offset="0.1034" style="stop-color:#2F4FAA"/>
			<stop  offset="1" style="stop-color:#00A0CB"/>
		</linearGradient>
		<polygon class="st102" points="81.93,19.75 81.92,19.75 81.92,19.75 		"/>
		<linearGradient id="SVGID_104_" gradientUnits="userSpaceOnUse" x1="135.8541" y1="51.8245" x2="83.448" y2="26.0655">
			<stop  offset="0.1034" style="stop-color:#2F4FAA"/>
			<stop  offset="1" style="stop-color:#00A0CB"/>
		</linearGradient>
		<polygon class="st103" points="84.5,26.58 84.5,26.59 84.5,26.58 84.5,26.58 		"/>
		<linearGradient id="SVGID_105_" gradientUnits="userSpaceOnUse" x1="135.8541" y1="51.8245" x2="83.448" y2="26.0655">
			<stop  offset="0.1034" style="stop-color:#2F4FAA"/>
			<stop  offset="1" style="stop-color:#00A0CB"/>
		</linearGradient>
		<polygon class="st104" points="84.5,26.58 84.5,26.59 84.5,26.58 84.5,26.58 		"/>
		<linearGradient id="SVGID_106_" gradientUnits="userSpaceOnUse" x1="136.6054" y1="50.296" x2="35.7481" y2="0.7221">
			<stop  offset="0.1034" style="stop-color:#2F4FAA"/>
			<stop  offset="1" style="stop-color:#00A0CB"/>
		</linearGradient>
		<path class="st105" d="M83.76,27.9c0.15,0,0.31-0.04,0.45-0.12c0.41-0.25,0.54-0.77,0.3-1.18c0,0,0,0,0-0.01c0,0,0,0,0,0
			c0,0,0,0,0-0.01c0,0,0,0,0,0c-1.27-2.06-2.14-4.35-2.57-6.82c0,0,0-0.01,0-0.01c0.08,0.47-0.23,0.92-0.7,1
			c-0.05,0.01-0.1,0.01-0.15,0.01c-0.41,0-0.77-0.29-0.85-0.71c0,0,0,0.01,0,0.01c0.46,2.52,1.41,5.06,2.77,7.37
			c0.01,0.02,0.02,0.04,0.03,0.05c0,0,0,0.01,0.01,0.01C83.19,27.75,83.47,27.9,83.76,27.9z"/>
		<linearGradient id="SVGID_107_" gradientUnits="userSpaceOnUse" x1="136.6054" y1="50.296" x2="35.7481" y2="0.7221">
			<stop  offset="0.1034" style="stop-color:#2F4FAA"/>
			<stop  offset="1" style="stop-color:#00A0CB"/>
		</linearGradient>
		<path class="st106" d="M83.76,27.9c0.15,0,0.31-0.04,0.45-0.12c0.41-0.25,0.54-0.77,0.3-1.18c0,0,0,0,0-0.01c0,0,0,0,0,0
			c0,0,0,0,0-0.01c0,0,0,0,0,0c-1.27-2.06-2.14-4.35-2.57-6.82c0,0,0-0.01,0-0.01c0.08,0.47-0.23,0.92-0.7,1
			c-0.05,0.01-0.1,0.01-0.15,0.01c-0.41,0-0.77-0.29-0.85-0.71c0,0,0,0.01,0,0.01c0.46,2.52,1.41,5.06,2.77,7.37
			c0.01,0.02,0.02,0.04,0.03,0.05c0,0,0,0.01,0.01,0.01C83.19,27.75,83.47,27.9,83.76,27.9z"/>
		<linearGradient id="SVGID_108_" gradientUnits="userSpaceOnUse" x1="136.6054" y1="50.296" x2="35.7481" y2="0.7221">
			<stop  offset="0.1034" style="stop-color:#2F4FAA"/>
			<stop  offset="1" style="stop-color:#00A0CB"/>
		</linearGradient>
		<path class="st107" d="M83.76,27.9c0.15,0,0.31-0.04,0.45-0.12c0.41-0.25,0.54-0.77,0.3-1.18c0,0,0,0,0-0.01c0,0,0,0,0,0
			c0,0,0,0,0-0.01c0,0,0,0,0,0c-1.27-2.06-2.14-4.35-2.57-6.82c0,0,0-0.01,0-0.01c0.08,0.47-0.23,0.92-0.7,1
			c-0.05,0.01-0.1,0.01-0.15,0.01c-0.41,0-0.77-0.29-0.85-0.71c0,0,0,0.01,0,0.01c0.46,2.52,1.41,5.06,2.77,7.37
			c0.01,0.02,0.02,0.04,0.03,0.05c0,0,0,0.01,0.01,0.01C83.19,27.75,83.47,27.9,83.76,27.9z"/>
		<linearGradient id="SVGID_109_" gradientUnits="userSpaceOnUse" x1="95.8336" y1="27.718" x2="64.6145" y2="12.373">
			<stop  offset="0.1034" style="stop-color:#2F4FAA"/>
			<stop  offset="1" style="stop-color:#00A0CB"/>
		</linearGradient>
		<polygon class="st108" points="80.22,20.05 80.22,20.05 80.22,20.04 80.22,20.04 		"/>
		<linearGradient id="SVGID_110_" gradientUnits="userSpaceOnUse" x1="95.8336" y1="27.718" x2="64.6145" y2="12.373">
			<stop  offset="0.1034" style="stop-color:#2F4FAA"/>
			<stop  offset="1" style="stop-color:#00A0CB"/>
		</linearGradient>
		<polygon class="st109" points="80.22,20.05 80.22,20.05 80.22,20.04 80.22,20.04 		"/>
		<linearGradient id="SVGID_111_" gradientUnits="userSpaceOnUse" x1="95.8336" y1="27.718" x2="64.6145" y2="12.373">
			<stop  offset="0.1034" style="stop-color:#2F4FAA"/>
			<stop  offset="1" style="stop-color:#00A0CB"/>
		</linearGradient>
		<polygon class="st110" points="80.22,20.05 80.22,20.05 80.22,20.04 80.22,20.04 		"/>
		<linearGradient id="SVGID_112_" gradientUnits="userSpaceOnUse" x1="137.8348" y1="47.7948" x2="36.9775" y2="-1.7791">
			<stop  offset="0.1034" style="stop-color:#2F4FAA"/>
			<stop  offset="1" style="stop-color:#00A0CB"/>
		</linearGradient>
		<path class="st111" d="M80.22,20.05c0.08,0.42,0.44,0.71,0.85,0.71c0.05,0,0.1,0,0.15-0.01c0.47-0.08,0.78-0.53,0.7-1c0,0,0,0,0,0
			c0,0,0,0,0-0.01c-0.08-0.47-0.53-0.78-1-0.7C80.45,19.13,80.14,19.57,80.22,20.05C80.22,20.04,80.22,20.05,80.22,20.05
			C80.22,20.05,80.22,20.05,80.22,20.05z"/>
		<linearGradient id="SVGID_113_" gradientUnits="userSpaceOnUse" x1="137.8348" y1="47.7948" x2="36.9775" y2="-1.7791">
			<stop  offset="0.1034" style="stop-color:#2F4FAA"/>
			<stop  offset="1" style="stop-color:#00A0CB"/>
		</linearGradient>
		<path class="st112" d="M80.22,20.05c0.08,0.42,0.44,0.71,0.85,0.71c0.05,0,0.1,0,0.15-0.01c0.47-0.08,0.78-0.53,0.7-1c0,0,0,0,0,0
			c0,0,0,0,0-0.01c-0.08-0.47-0.53-0.78-1-0.7C80.45,19.13,80.14,19.57,80.22,20.05C80.22,20.04,80.22,20.05,80.22,20.05
			C80.22,20.05,80.22,20.05,80.22,20.05z"/>
		<linearGradient id="SVGID_114_" gradientUnits="userSpaceOnUse" x1="137.8348" y1="47.7948" x2="36.9775" y2="-1.7791">
			<stop  offset="0.1034" style="stop-color:#2F4FAA"/>
			<stop  offset="1" style="stop-color:#00A0CB"/>
		</linearGradient>
		<path class="st113" d="M80.22,20.05c0.08,0.42,0.44,0.71,0.85,0.71c0.05,0,0.1,0,0.15-0.01c0.47-0.08,0.78-0.53,0.7-1c0,0,0,0,0,0
			c0,0,0,0,0-0.01c-0.08-0.47-0.53-0.78-1-0.7C80.45,19.13,80.14,19.57,80.22,20.05C80.22,20.04,80.22,20.05,80.22,20.05
			C80.22,20.05,80.22,20.05,80.22,20.05z"/>
		<linearGradient id="SVGID_115_" gradientUnits="userSpaceOnUse" x1="137.8348" y1="47.7948" x2="36.9775" y2="-1.7791">
			<stop  offset="0.1034" style="stop-color:#2F4FAA"/>
			<stop  offset="1" style="stop-color:#00A0CB"/>
		</linearGradient>
		<path class="st114" d="M80.22,20.05c0.08,0.42,0.44,0.71,0.85,0.71c0.05,0,0.1,0,0.15-0.01c0.47-0.08,0.78-0.53,0.7-1c0,0,0,0,0,0
			c0,0,0,0,0-0.01c-0.08-0.47-0.53-0.78-1-0.7C80.45,19.13,80.14,19.57,80.22,20.05C80.22,20.04,80.22,20.05,80.22,20.05
			C80.22,20.05,80.22,20.05,80.22,20.05z"/>
		<linearGradient id="SVGID_116_" gradientUnits="userSpaceOnUse" x1="123.5215" y1="76.9151" x2="22.6642" y2="27.3411">
			<stop  offset="0.1034" style="stop-color:#2F4FAA"/>
			<stop  offset="1" style="stop-color:#00A0CB"/>
		</linearGradient>
		<path class="st115" d="M37.36,37.98c0.06,0,0.12-0.01,0.18-0.02c3.26-0.68,6.63-0.69,10.02-0.01c0.47,0.09,0.92-0.21,1.02-0.68
			c0.01-0.06,0.02-0.12,0.02-0.17c0-0.4-0.28-0.76-0.7-0.85c-3.62-0.72-7.23-0.72-10.72,0.01c-0.41,0.09-0.69,0.44-0.69,0.84
			c0,0.06,0.01,0.12,0.02,0.18C36.6,37.7,36.96,37.98,37.36,37.98z"/>
		<linearGradient id="SVGID_117_" gradientUnits="userSpaceOnUse" x1="125.5628" y1="72.7619" x2="24.7055" y2="23.188">
			<stop  offset="0.1034" style="stop-color:#2F4FAA"/>
			<stop  offset="1" style="stop-color:#00A0CB"/>
		</linearGradient>
		<path class="st116" d="M60.84,37.33c-6.81-4.62-14.97-6.57-22.85-5.38c-0.43,0.06-0.74,0.43-0.74,0.85c0,0.04,0,0.09,0.01,0.13
			c0.07,0.47,0.51,0.8,0.98,0.73c8.43-1.27,17.22,1.27,24.1,6.96c0.16,0.13,0.36,0.2,0.55,0.2c0.08,0,0.15-0.03,0.23-0.05l0.17-0.52
			C62.24,39.5,61.4,38.49,60.84,37.33z"/>
		<linearGradient id="SVGID_118_" gradientUnits="userSpaceOnUse" x1="114.482" y1="95.3057" x2="13.6247" y2="45.7318">
			<stop  offset="0.1034" style="stop-color:#2F4FAA"/>
			<stop  offset="1" style="stop-color:#00A0CB"/>
		</linearGradient>
		<path class="st117" d="M65.03,70.78c0.04,0.33,0.27,0.63,0.62,0.73C65.3,71.41,65.07,71.11,65.03,70.78z"/>
		<linearGradient id="SVGID_119_" gradientUnits="userSpaceOnUse" x1="118.0099" y1="88.1282" x2="17.1526" y2="38.5542">
			<stop  offset="0.1034" style="stop-color:#2F4FAA"/>
			<stop  offset="1" style="stop-color:#00A0CB"/>
		</linearGradient>
		<path class="st118" d="M78.84,69.47c0.44,0,0.81-0.33,0.86-0.77C79.65,69.14,79.28,69.47,78.84,69.47z"/>
		<linearGradient id="SVGID_120_" gradientUnits="userSpaceOnUse" x1="127.9045" y1="67.9979" x2="27.0472" y2="18.4239">
			<stop  offset="0.1034" style="stop-color:#2F4FAA"/>
			<stop  offset="1" style="stop-color:#00A0CB"/>
		</linearGradient>
		<path class="st119" d="M54.69,31.45c-1.8-0.68-3.64-1.2-5.51-1.57C51.06,30.24,52.9,30.77,54.69,31.45z"/>
		<linearGradient id="SVGID_121_" gradientUnits="userSpaceOnUse" x1="128.165" y1="67.4679" x2="27.3077" y2="17.894">
			<stop  offset="0.1034" style="stop-color:#2F4FAA"/>
			<stop  offset="1" style="stop-color:#00A0CB"/>
		</linearGradient>
		<path class="st120" d="M54.69,31.45c1.86,0.7,3.66,1.56,5.39,2.57v0C58.35,33.01,56.55,32.14,54.69,31.45z"/>
		<linearGradient id="SVGID_122_" gradientUnits="userSpaceOnUse" x1="123.2256" y1="77.517" x2="22.3683" y2="27.9431">
			<stop  offset="0.1034" style="stop-color:#2F4FAA"/>
			<stop  offset="1" style="stop-color:#00A0CB"/>
		</linearGradient>
		<path class="st121" d="M77.1,56.37L77.1,56.37c-0.31-1.22-0.69-2.42-1.13-3.61l0,0C76.42,53.95,76.79,55.15,77.1,56.37z"/>
		<linearGradient id="SVGID_123_" gradientUnits="userSpaceOnUse" x1="122.4925" y1="79.0085" x2="21.6352" y2="29.4346">
			<stop  offset="0.1034" style="stop-color:#2F4FAA"/>
			<stop  offset="1" style="stop-color:#00A0CB"/>
		</linearGradient>
		<path class="st122" d="M77.16,56.56c0.03,0.12,0.07,0.25,0.1,0.37C77.23,56.81,77.19,56.69,77.16,56.56L77.16,56.56z"/>
		<linearGradient id="SVGID_124_" gradientUnits="userSpaceOnUse" x1="121.7413" y1="80.5368" x2="20.884" y2="30.9629">
			<stop  offset="0.1034" style="stop-color:#2F4FAA"/>
			<stop  offset="1" style="stop-color:#00A0CB"/>
		</linearGradient>
		<path class="st123" d="M77.94,60.74c-0.16-1.28-0.38-2.55-0.68-3.81C77.55,58.19,77.78,59.46,77.94,60.74z"/>
		<linearGradient id="SVGID_125_" gradientUnits="userSpaceOnUse" x1="127.4664" y1="68.8892" x2="26.6091" y2="19.3152">
			<stop  offset="0.1034" style="stop-color:#2F4FAA"/>
			<stop  offset="1" style="stop-color:#00A0CB"/>
		</linearGradient>
		<path class="st124" d="M60.33,32.17c-6.36-3.55-13.59-5.18-20.85-4.54c-0.24,0.02-0.44,0.14-0.59,0.31
			c-0.14,0.17-0.22,0.39-0.2,0.63c0.03,0.36,0.27,0.64,0.59,0.75c0.11,0.03,0.22,0.05,0.34,0.04c3.22-0.28,6.43-0.1,9.55,0.52
			c1.87,0.37,3.72,0.9,5.51,1.57c1.86,0.7,3.66,1.56,5.39,2.57C60.09,33.38,60.18,32.76,60.33,32.17z"/>
		<linearGradient id="SVGID_126_" gradientUnits="userSpaceOnUse" x1="127.4664" y1="68.8892" x2="26.6091" y2="19.3152">
			<stop  offset="0.1034" style="stop-color:#2F4FAA"/>
			<stop  offset="1" style="stop-color:#00A0CB"/>
		</linearGradient>
		<path class="st125" d="M60.33,32.17c-6.36-3.55-13.59-5.18-20.85-4.54c-0.24,0.02-0.44,0.14-0.59,0.31
			c-0.14,0.17-0.22,0.39-0.2,0.63c0.03,0.36,0.27,0.64,0.59,0.75c0.11,0.03,0.22,0.05,0.34,0.04c3.22-0.28,6.43-0.1,9.55,0.52
			c1.87,0.37,3.72,0.9,5.51,1.57c1.86,0.7,3.66,1.56,5.39,2.57C60.09,33.38,60.18,32.76,60.33,32.17z"/>
		<linearGradient id="SVGID_127_" gradientUnits="userSpaceOnUse" x1="122.294" y1="79.4123" x2="21.4367" y2="29.8384">
			<stop  offset="0.1034" style="stop-color:#2F4FAA"/>
			<stop  offset="1" style="stop-color:#00A0CB"/>
		</linearGradient>
		<path class="st126" d="M77.1,56.37l0.06,0.19h-0.01c0.03,0.12,0.07,0.25,0.1,0.37c0.3,1.26,0.53,2.53,0.68,3.81
			c0.31,2.56,0.33,5.17,0.04,7.77c-0.04,0.36,0.14,0.69,0.44,0.85c0.1,0.05,0.21,0.09,0.33,0.1c0.03,0,0.06,0.01,0.1,0.01
			c0.44,0,0.81-0.33,0.86-0.77c0.97-8.82-1.4-17.63-6.57-24.97l2.84,9.03C76.41,53.95,76.79,55.15,77.1,56.37z"/>
		<linearGradient id="SVGID_128_" gradientUnits="userSpaceOnUse" x1="122.294" y1="79.4123" x2="21.4367" y2="29.8384">
			<stop  offset="0.1034" style="stop-color:#2F4FAA"/>
			<stop  offset="1" style="stop-color:#00A0CB"/>
		</linearGradient>
		<path class="st127" d="M77.1,56.37l0.06,0.19h-0.01c0.03,0.12,0.07,0.25,0.1,0.37c0.3,1.26,0.53,2.53,0.68,3.81
			c0.31,2.56,0.33,5.17,0.04,7.77c-0.04,0.36,0.14,0.69,0.44,0.85c0.1,0.05,0.21,0.09,0.33,0.1c0.03,0,0.06,0.01,0.1,0.01
			c0.44,0,0.81-0.33,0.86-0.77c0.97-8.82-1.4-17.63-6.57-24.97l2.84,9.03C76.41,53.95,76.79,55.15,77.1,56.37z"/>
		<linearGradient id="SVGID_129_" gradientUnits="userSpaceOnUse" x1="119.2129" y1="85.6807" x2="18.3556" y2="36.1068">
			<stop  offset="0.1034" style="stop-color:#2F4FAA"/>
			<stop  offset="1" style="stop-color:#00A0CB"/>
		</linearGradient>
		<path class="st128" d="M74.06,64.86c0,1.65-0.14,3.31-0.43,4.95c-0.01,0.05-0.01,0.1-0.01,0.15c0,0.41,0.3,0.78,0.72,0.85
			c0.05,0.01,0.1,0.01,0.15,0.01c0.41,0,0.78-0.3,0.85-0.72c0.3-1.74,0.45-3.5,0.45-5.25c0-2.8-0.39-5.58-1.13-8.29h-1.79
			C73.65,59.27,74.06,62.06,74.06,64.86z"/>
		<linearGradient id="SVGID_130_" gradientUnits="userSpaceOnUse" x1="116.0154" y1="92.186" x2="15.1581" y2="42.6121">
			<stop  offset="0.1034" style="stop-color:#2F4FAA"/>
			<stop  offset="1" style="stop-color:#00A0CB"/>
		</linearGradient>
		<path class="st129" d="M70.64,67.99c-0.47-0.08-0.91,0.25-0.99,0.72c-0.09,0.57-0.2,1.15-0.34,1.72c-0.02,0.07-0.02,0.13-0.02,0.2
			c0,0.39,0.27,0.75,0.67,0.84c0.07,0.02,0.13,0.02,0.2,0.02c0.39,0,0.75-0.27,0.84-0.67c0.14-0.61,0.26-1.23,0.36-1.84
			c0.01-0.05,0.01-0.09,0.01-0.13C71.37,68.42,71.07,68.05,70.64,67.99z"/>
		<linearGradient id="SVGID_131_" gradientUnits="userSpaceOnUse" x1="124.622" y1="74.676" x2="23.7647" y2="25.1021">
			<stop  offset="0.1034" style="stop-color:#2F4FAA"/>
			<stop  offset="1" style="stop-color:#00A0CB"/>
		</linearGradient>
		<path class="st130" d="M52.52,37.6c-0.45-0.17-0.95,0.05-1.12,0.5c-0.04,0.1-0.06,0.21-0.06,0.31c0,0.35,0.21,0.68,0.56,0.81
			c3.6,1.38,6.85,3.48,9.66,6.24l0.61-1.81C59.32,41,56.09,38.96,52.52,37.6z"/>
		<linearGradient id="SVGID_132_" gradientUnits="userSpaceOnUse" x1="119.208" y1="85.6906" x2="18.3507" y2="36.1167">
			<stop  offset="0.1034" style="stop-color:#2F4FAA"/>
			<stop  offset="1" style="stop-color:#00A0CB"/>
		</linearGradient>
		<path class="st131" d="M69.95,64.89c0,0.37-0.01,0.75-0.02,1.12c0,0.01,0,0.03,0,0.04c0,0.46,0.36,0.84,0.83,0.86
			c0.01,0,0.03,0,0.04,0c0.46,0,0.84-0.36,0.86-0.83c0.02-0.4,0.03-0.8,0.03-1.2c0-2.82-0.45-5.63-1.29-8.33h-1.82
			C69.46,59.26,69.95,62.07,69.95,64.89z"/>
		<linearGradient id="SVGID_133_" gradientUnits="userSpaceOnUse" x1="122.2951" y1="79.41" x2="21.4378" y2="29.8361">
			<stop  offset="0.1034" style="stop-color:#2F4FAA"/>
			<stop  offset="1" style="stop-color:#00A0CB"/>
		</linearGradient>
		<path class="st132" d="M47.36,42.11c-0.94-0.22-1.89-0.37-2.84-0.46C45.47,41.74,46.42,41.89,47.36,42.11z"/>
		<linearGradient id="SVGID_134_" gradientUnits="userSpaceOnUse" x1="120.8147" y1="82.422" x2="19.9574" y2="32.848">
			<stop  offset="0.1034" style="stop-color:#2F4FAA"/>
			<stop  offset="1" style="stop-color:#00A0CB"/>
		</linearGradient>
		<path class="st133" d="M37,40.55c-0.46,0.12-0.74,0.59-0.62,1.06C36.27,41.14,36.54,40.67,37,40.55z"/>
		<linearGradient id="SVGID_135_" gradientUnits="userSpaceOnUse" x1="114.6396" y1="94.9849" x2="13.7824" y2="45.411">
			<stop  offset="0.1034" style="stop-color:#2F4FAA"/>
			<stop  offset="1" style="stop-color:#00A0CB"/>
		</linearGradient>
		<path class="st134" d="M65.03,70.78c-0.01-0.11,0-0.23,0.03-0.34C65.02,70.55,65.01,70.67,65.03,70.78z"/>
		<linearGradient id="SVGID_136_" gradientUnits="userSpaceOnUse" x1="122.6877" y1="78.6113" x2="21.8304" y2="29.0374">
			<stop  offset="0.1034" style="stop-color:#2F4FAA"/>
			<stop  offset="1" style="stop-color:#00A0CB"/>
		</linearGradient>
		<path class="st135" d="M55.4,45.68c-0.83-0.57-1.69-1.09-2.56-1.55C53.71,44.59,54.57,45.11,55.4,45.68z"/>
		<linearGradient id="SVGID_137_" gradientUnits="userSpaceOnUse" x1="117.3937" y1="89.3819" x2="16.5364" y2="39.808">
			<stop  offset="0.1034" style="stop-color:#2F4FAA"/>
			<stop  offset="1" style="stop-color:#00A0CB"/>
		</linearGradient>
		<path class="st136" d="M65.05,70.43c-0.03,0.11-0.04,0.23-0.03,0.34c0.04,0.33,0.27,0.63,0.62,0.73c0.08,0.02,0.16,0.03,0.24,0.03
			c0.37,0,0.72-0.25,0.83-0.62c1.36-4.69,1.06-9.71-0.68-14.35h-1.85C66,61.03,66.37,65.9,65.05,70.43z"/>
		<linearGradient id="SVGID_138_" gradientUnits="userSpaceOnUse" x1="117.3937" y1="89.3819" x2="16.5364" y2="39.808">
			<stop  offset="0.1034" style="stop-color:#2F4FAA"/>
			<stop  offset="1" style="stop-color:#00A0CB"/>
		</linearGradient>
		<path class="st137" d="M65.05,70.43c-0.03,0.11-0.04,0.23-0.03,0.34c0.04,0.33,0.27,0.63,0.62,0.73c0.08,0.02,0.16,0.03,0.24,0.03
			c0.37,0,0.72-0.25,0.83-0.62c1.36-4.69,1.06-9.71-0.68-14.35h-1.85C66,61.03,66.37,65.9,65.05,70.43z"/>
		<linearGradient id="SVGID_139_" gradientUnits="userSpaceOnUse" x1="121.9614" y1="80.0889" x2="21.1041" y2="30.515">
			<stop  offset="0.1034" style="stop-color:#2F4FAA"/>
			<stop  offset="1" style="stop-color:#00A0CB"/>
		</linearGradient>
		<path class="st138" d="M60.15,47.42c-6.29-6.34-15.15-8.97-23.14-6.87c-0.46,0.12-0.74,0.59-0.62,1.06
			c0.12,0.46,0.6,0.74,1.06,0.62c2.31-0.61,4.7-0.79,7.08-0.57c0.95,0.09,1.9,0.24,2.84,0.46c1.88,0.43,3.72,1.11,5.48,2.03
			c0.88,0.46,1.73,0.97,2.56,1.55c1.24,0.86,2.42,1.85,3.52,2.95c0.4,0.41,0.79,0.83,1.15,1.25l0.63-1.87
			C60.52,47.81,60.34,47.61,60.15,47.42z"/>
		<linearGradient id="SVGID_140_" gradientUnits="userSpaceOnUse" x1="121.9614" y1="80.0889" x2="21.1041" y2="30.515">
			<stop  offset="0.1034" style="stop-color:#2F4FAA"/>
			<stop  offset="1" style="stop-color:#00A0CB"/>
		</linearGradient>
		<path class="st139" d="M60.15,47.42c-6.29-6.34-15.15-8.97-23.14-6.87c-0.46,0.12-0.74,0.59-0.62,1.06
			c0.12,0.46,0.6,0.74,1.06,0.62c2.31-0.61,4.7-0.79,7.08-0.57c0.95,0.09,1.9,0.24,2.84,0.46c1.88,0.43,3.72,1.11,5.48,2.03
			c0.88,0.46,1.73,0.97,2.56,1.55c1.24,0.86,2.42,1.85,3.52,2.95c0.4,0.41,0.79,0.83,1.15,1.25l0.63-1.87
			C60.52,47.81,60.34,47.61,60.15,47.42z"/>
		<linearGradient id="SVGID_141_" gradientUnits="userSpaceOnUse" x1="116.4317" y1="91.3391" x2="15.5744" y2="41.7652">
			<stop  offset="0.1034" style="stop-color:#2F4FAA"/>
			<stop  offset="1" style="stop-color:#00A0CB"/>
		</linearGradient>
		<path class="st140" d="M61.2,57.83c-0.35,0.13-0.58,0.46-0.58,0.81c0,0.1,0.02,0.19,0.05,0.29c0.7,1.96,1.05,3.99,1.05,5.96
			c0,1.72-0.27,3.41-0.8,4.98c-0.03,0.09-0.05,0.18-0.05,0.28c0,0.36,0.23,0.7,0.59,0.82c0.09,0.03,0.19,0.05,0.28,0.05
			c0.36,0,0.7-0.23,0.82-0.59c0.59-1.75,0.89-3.62,0.89-5.53c0-2.17-0.38-4.39-1.15-6.54C62.15,57.9,61.65,57.67,61.2,57.83z"/>
		<linearGradient id="SVGID_142_" gradientUnits="userSpaceOnUse" x1="120.2718" y1="83.5264" x2="19.4145" y2="33.9525">
			<stop  offset="0.1034" style="stop-color:#2F4FAA"/>
			<stop  offset="1" style="stop-color:#00A0CB"/>
		</linearGradient>
		<path class="st141" d="M57.22,50.32c-5.41-5.46-13.19-7.67-19.82-5.61c-0.37,0.12-0.61,0.46-0.61,0.82c0,0.09,0.01,0.17,0.04,0.26
			c0.14,0.46,0.63,0.71,1.08,0.57c6.02-1.87,13.11,0.16,18.08,5.18c0.94,0.95,1.77,1.99,2.5,3.08l0.68-2.04
			C58.57,51.79,57.93,51.03,57.22,50.32z"/>
		<linearGradient id="SVGID_143_" gradientUnits="userSpaceOnUse" x1="116.6609" y1="90.8728" x2="15.8036" y2="41.2989">
			<stop  offset="0.1034" style="stop-color:#2F4FAA"/>
			<stop  offset="1" style="stop-color:#00A0CB"/>
		</linearGradient>
		<path class="st142" d="M38.36,48.73c-0.45,0.15-0.7,0.64-0.54,1.09c0.15,0.45,0.64,0.7,1.1,0.54c4.61-1.55,10.16,0.05,14.15,4.07
			c3.98,4.02,5.54,9.78,3.87,14.34c-0.16,0.45,0.07,0.95,0.52,1.11c0.1,0.04,0.2,0.05,0.3,0.05c0.35,0,0.68-0.22,0.81-0.57
			c1.92-5.25,0.25-11.59-4.27-16.15C49.84,48.73,43.59,46.97,38.36,48.73z"/>
		<linearGradient id="SVGID_144_" gradientUnits="userSpaceOnUse" x1="116.6609" y1="90.8728" x2="15.8036" y2="41.2989">
			<stop  offset="0.1034" style="stop-color:#2F4FAA"/>
			<stop  offset="1" style="stop-color:#00A0CB"/>
		</linearGradient>
		<path class="st143" d="M38.36,48.73c-0.45,0.15-0.7,0.64-0.54,1.09c0.15,0.45,0.64,0.7,1.1,0.54c4.61-1.55,10.16,0.05,14.15,4.07
			c3.98,4.02,5.54,9.78,3.87,14.34c-0.16,0.45,0.07,0.95,0.52,1.11c0.1,0.04,0.2,0.05,0.3,0.05c0.35,0,0.68-0.22,0.81-0.57
			c1.92-5.25,0.25-11.59-4.27-16.15C49.84,48.73,43.59,46.97,38.36,48.73z"/>
		<linearGradient id="SVGID_145_" gradientUnits="userSpaceOnUse" x1="115.6942" y1="92.8394" x2="14.8369" y2="43.2655">
			<stop  offset="0.1034" style="stop-color:#2F4FAA"/>
			<stop  offset="1" style="stop-color:#00A0CB"/>
		</linearGradient>
		<path class="st144" d="M39.92,52.57c-0.46,0.14-0.72,0.62-0.58,1.08c0.14,0.46,0.62,0.71,1.08,0.58c3.06-0.92,6.97,0.33,9.72,3.11
			c2.79,2.82,3.99,6.78,2.98,9.85c-0.15,0.45,0.1,0.94,0.55,1.09c0.09,0.03,0.18,0.04,0.27,0.04c0.36,0,0.7-0.23,0.82-0.59
			c1.21-3.67-0.15-8.34-3.39-11.61C48.17,52.9,43.57,51.48,39.92,52.57z"/>
		<linearGradient id="SVGID_146_" gradientUnits="userSpaceOnUse" x1="115.6942" y1="92.8394" x2="14.8369" y2="43.2655">
			<stop  offset="0.1034" style="stop-color:#2F4FAA"/>
			<stop  offset="1" style="stop-color:#00A0CB"/>
		</linearGradient>
		<path class="st145" d="M39.92,52.57c-0.46,0.14-0.72,0.62-0.58,1.08c0.14,0.46,0.62,0.71,1.08,0.58c3.06-0.92,6.97,0.33,9.72,3.11
			c2.79,2.82,3.99,6.78,2.98,9.85c-0.15,0.45,0.1,0.94,0.55,1.09c0.09,0.03,0.18,0.04,0.27,0.04c0.36,0,0.7-0.23,0.82-0.59
			c1.21-3.67-0.15-8.34-3.39-11.61C48.17,52.9,43.57,51.48,39.92,52.57z"/>
	</g>
	<g>
		<linearGradient id="SVGID_147_" gradientUnits="userSpaceOnUse" x1="126.1289" y1="71.6102" x2="25.2716" y2="22.0363">
			<stop  offset="0.1034" style="stop-color:#2F4FAA"/>
			<stop  offset="1" style="stop-color:#00A0CB"/>
		</linearGradient>
		<path class="st146" d="M60.87,54.38l5.09-15.22c-2.15-0.71-3.7-2.73-3.7-5.12c0-2.98,2.42-5.41,5.41-5.41
			c2.98,0,5.4,2.42,5.4,5.41c0,2.39-1.55,4.41-3.69,5.12l5.09,15.22H60.87z"/>
	</g>
</g>
</svg>
