<?xml version="1.0" encoding="UTF-8" standalone="no"?>
<!DOCTYPE svg PUBLIC "-//W3C//DTD SVG 1.1//EN" "http://www.w3.org/Graphics/SVG/1.1/DTD/svg11.dtd">
<svg xmlns="http://www.w3.org/2000/svg" version="1.1" viewBox="0.00 0.00 1024.00 1024.00">
<g stroke-width="2.00" fill="none" stroke-linecap="butt">
<path stroke="#1fbbcb" vector-effect="non-scaling-stroke" d="
  M 522.79 191.35
  Q 523.26 191.42 523.71 191.34"
/>
<path stroke="#32e6dc" vector-effect="non-scaling-stroke" d="
  M 607.31 206.16
  Q 600.52 205.79 593.90 206.25
  C 589.08 206.60 585.98 208.81 588.21 214.02
  C 592.07 223.03 594.91 229.26 597.46 237.39
  C 604.55 259.92 607.13 271.68 616.01 286.77
  C 619.50 292.71 623.82 298.39 629.18 306.04
  Q 633.91 312.79 638.67 320.68
  Q 647.27 334.91 655.46 347.71
  C 666.03 364.24 670.79 377.70 678.69 398.58
  C 686.28 418.66 695.07 435.87 704.83 457.24
  C 710.68 470.05 718.72 484.50 724.04 497.32
  C 731.58 515.44 737.95 535.66 744.48 554.91
  C 747.15 562.76 751.04 570.35 758.87 574.22
  Q 765.23 577.37 768.17 579.56
  C 776.10 585.49 780.75 595.67 784.45 604.76"
/>
<path stroke="#2cc3d1" vector-effect="non-scaling-stroke" d="
  M 579.46 770.79
  C 582.11 762.43 587.75 754.63 589.66 747.84
  C 593.30 734.88 596.35 725.08 603.35 716.33
  Q 611.24 706.46 618.17 697.89
  C 624.36 690.21 630.65 679.82 634.94 673.10
  C 638.47 667.56 642.92 662.29 647.48 656.70
  C 654.36 648.25 658.91 641.50 664.53 632.29
  Q 674.34 616.19 677.34 598.28"
/>
<path stroke="#22c8d1" vector-effect="non-scaling-stroke" d="
  M 653.65 456.86
  Q 655.29 457.69 656.71 458.84
  Q 657.23 459.25 657.28 459.18
  L 657.28 459.17
  Q 657.36 459.06 656.92 458.61
  C 653.87 455.43 654.07 452.60 656.18 448.83
  Q 658.53 444.64 660.51 440.69"
/>
<path stroke="#29b4cb" vector-effect="non-scaling-stroke" d="
  M 660.78 427.04
  Q 661.22 425.71 660.84 424.51"
/>
<path stroke="#27a3bd" vector-effect="non-scaling-stroke" d="
  M 660.63 417.29
  L 660.61 416.50"
/>
<path stroke="#2babc6" vector-effect="non-scaling-stroke" d="
  M 659.91 405.54
  L 659.88 402.46"
/>
<path stroke="#2cc3d1" vector-effect="non-scaling-stroke" d="
  M 425.10 285.20
  C 410.44 264.13 403.60 236.95 405.78 211.37"
/>
<path stroke="#279fc5" vector-effect="non-scaling-stroke" d="
  M 374.85 349.96
  Q 361.22 364.66 345.79 376.94
  Q 343.57 378.70 341.94 380.78
  C 338.70 384.88 336.19 387.96 333.97 391.85
  Q 329.84 399.08 323.29 409.22
  Q 322.27 410.80 322.44 408.93
  Q 323.49 397.37 324.12 384.83
  C 325.60 355.48 313.56 329.85 302.98 303.27
  Q 300.64 297.41 297.45 285.76"
/>
<path stroke="#279fc5" vector-effect="non-scaling-stroke" d="
  M 471.17 775.04
  Q 489.46 767.80 507.87 761.20
  C 523.14 755.72 536.83 749.26 548.52 739.17
  C 558.27 730.76 567.73 718.93 576.47 708.37
  Q 578.04 706.47 580.07 705.63
  C 585.16 703.51 589.13 702.33 593.68 699.62
  Q 599.62 696.07 606.91 692.20
  C 611.04 690.00 614.72 686.20 618.09 683.83
  Q 627.51 677.18 634.55 668.02"
/>
<path stroke="#1c93b7" vector-effect="non-scaling-stroke" d="
  M 615.61 398.80
  L 616.20 399.41
  Q 616.54 399.77 616.17 400.09
  Q 615.64 400.57 616.37 401.73
  Q 617.04 402.79 618.63 403.73
  Q 626.16 408.17 632.51 412.58
  Q 632.64 412.67 632.73 412.63
  Q 632.83 412.59 632.90 412.40
  A 0.33 0.33 0.0 0 0 632.80 412.00
  L 619.74 401.84"
/>
<path stroke="#22c8d1" vector-effect="non-scaling-stroke" d="
  M 635.45 413.35
  L 655.00 433.12"
/>
<path stroke="#2687ba" vector-effect="non-scaling-stroke" d="
  M 367.87 374.42
  Q 360.78 385.73 351.40 395.12
  C 343.07 403.45 331.88 410.42 324.86 418.65
  Q 310.95 434.97 310.17 456.78
  C 309.79 467.54 313.13 478.08 311.04 488.78
  C 309.36 497.37 303.80 504.96 297.51 511.78
  C 290.83 519.00 284.15 521.44 277.06 512.89
  Q 273.14 508.18 269.99 501.90
  C 258.26 478.54 257.48 454.33 254.74 426.47
  C 252.97 408.48 250.13 385.81 245.17 365.97"
/>
<path stroke="#279fc5" vector-effect="non-scaling-stroke" d="
  M 524.55 716.98
  Q 529.38 717.31 533.07 716.03"
/>
<path stroke="#1986b1" vector-effect="non-scaling-stroke" d="
  M 614.66 390.49
  Q 614.31 390.81 614.58 391.54"
/>
<path stroke="#14abc4" vector-effect="non-scaling-stroke" d="
  M 614.53 394.26
  Q 613.27 388.06 612.25 381.82
  Q 611.58 377.79 610.11 374.77
  C 602.74 359.61 594.51 348.02 578.86 340.46
  C 548.80 325.93 509.21 321.08 478.81 337.56
  C 465.00 345.05 453.03 356.69 442.49 367.72
  Q 436.58 373.91 433.68 379.37
  C 430.87 384.65 429.70 390.66 427.66 398.24
  Q 426.86 401.21 422.25 410.68"
/>
<path stroke="#1c8eb9" vector-effect="non-scaling-stroke" d="
  M 366.32 467.32
  C 367.04 457.87 370.93 450.17 374.16 441.80
  Q 375.10 439.36 377.28 430.31"
/>
<path stroke="#2576ac" vector-effect="non-scaling-stroke" d="
  M 365.80 391.97
  Q 364.68 411.95 365.10 434.72
  Q 365.16 438.01 366.04 440.35"
/>
<path stroke="#2576ac" vector-effect="non-scaling-stroke" d="
  M 347.66 514.73
  Q 339.36 519.45 333.72 523.71
  C 312.63 539.63 304.35 567.23 310.69 592.60
  Q 314.63 608.32 323.34 631.59
  C 329.76 648.74 338.98 660.02 354.33 669.53
  C 365.66 676.55 378.24 683.77 390.81 688.58
  C 398.55 691.53 408.82 693.72 417.77 695.97
  Q 422.29 697.10 435.10 701.95
  C 435.66 702.17 436.15 702.08 436.77 702.35
  Q 440.61 704.03 442.56 704.88
  C 444.31 705.63 446.20 705.77 448.01 706.74
  Q 450.31 707.97 451.85 708.48
  Q 458.64 710.72 464.94 712.89
  Q 466.82 713.54 468.83 713.31
  Q 469.04 713.29 469.17 713.11
  Q 469.31 712.90 469.29 712.64
  A 0.41 0.41 0.0 0 0 469.00 712.29
  C 460.59 709.71 454.68 708.08 447.93 705.17
  Q 441.24 702.29 434.19 699.04
  Q 429.88 697.04 427.99 694.72"
/>
<path stroke="#2996c0" vector-effect="non-scaling-stroke" d="
  M 495.68 716.25
  Q 502.45 717.20 509.24 717.63
  Q 517.00 718.12 524.55 716.98"
/>
<path stroke="#2687ba" vector-effect="non-scaling-stroke" d="
  M 524.55 716.98
  Q 531.74 717.18 537.48 715.88
  Q 538.40 715.68 538.82 716.07
  Q 539.25 716.48 538.68 716.64
  Q 535.81 717.47 534.48 717.58
  Q 528.63 718.06 521.19 718.84
  C 517.55 719.22 514.35 719.13 510.33 719.12
  Q 509.31 719.12 504.78 718.50
  Q 500.82 717.95 497.50 718.38
  Q 496.17 718.56 492.97 717.85
  C 490.52 717.31 487.22 717.48 484.35 716.42
  C 483.17 715.98 482.46 716.27 481.42 716.06
  Q 480.69 715.91 479.36 716.62
  Q 474.51 719.19 459.87 726.39
  Q 435.57 738.35 409.38 732.72
  Q 386.14 727.73 365.73 720.05
  C 355.97 716.37 346.63 709.39 339.47 702.79
  C 321.16 685.90 306.19 671.58 287.42 659.29
  Q 282.39 655.99 272.77 652.25"
/>
<path stroke="#1a97bf" vector-effect="non-scaling-stroke" d="
  M 521.11 483.57
  Q 513.66 484.34 506.38 483.56"
/>
<path stroke="#1da6c5" vector-effect="non-scaling-stroke" d="
  M 530.27 484.73
  Q 536.88 487.94 538.57 489.17
  Q 542.74 492.21 550.49 501.89"
/>
<path stroke="#1986b1" vector-effect="non-scaling-stroke" d="
  M 533.13 564.21
  Q 532.57 566.24 533.11 568.32"
/>
<path stroke="#1986b1" vector-effect="non-scaling-stroke" d="
  M 533.12 572.54
  L 533.10 573.29"
/>
<path stroke="#1986b1" vector-effect="non-scaling-stroke" d="
  M 532.88 584.96
  Q 532.57 585.37 532.76 586.05"
/>
<path stroke="#1986b1" vector-effect="non-scaling-stroke" d="
  M 533.13 601.77
  L 533.14 605.76"
/>
<path stroke="#1986b1" vector-effect="non-scaling-stroke" d="
  M 493.90 601.79
  Q 494.39 599.66 493.92 597.44"
/>
<path stroke="#1986b1" vector-effect="non-scaling-stroke" d="
  M 493.97 594.54
  L 493.95 576.77"
/>
<path stroke="#1986b1" vector-effect="non-scaling-stroke" d="
  M 493.88 572.79
  Q 494.08 572.23 493.94 571.53"
/>
<path stroke="#1986b1" vector-effect="non-scaling-stroke" d="
  M 493.94 568.22
  Q 494.12 567.05 493.86 566.02"
/>
</g>
<path fill="#2dd8d7" d="
  M 522.79 191.35
  Q 523.26 191.42 523.71 191.34
  Q 530.53 191.25 543.58 192.64
  Q 560.64 194.47 567.55 195.92
  Q 579.03 198.33 590.46 200.99
  C 596.09 202.30 601.73 204.26 607.31 206.16
  Q 600.52 205.79 593.90 206.25
  C 589.08 206.60 585.98 208.81 588.21 214.02
  C 592.07 223.03 594.91 229.26 597.46 237.39
  C 604.55 259.92 607.13 271.68 616.01 286.77
  C 619.50 292.71 623.82 298.39 629.18 306.04
  Q 633.91 312.79 638.67 320.68
  Q 647.27 334.91 655.46 347.71
  C 666.03 364.24 670.79 377.70 678.69 398.58
  C 686.28 418.66 695.07 435.87 704.83 457.24
  C 710.68 470.05 718.72 484.50 724.04 497.32
  C 731.58 515.44 737.95 535.66 744.48 554.91
  C 747.15 562.76 751.04 570.35 758.87 574.22
  Q 765.23 577.37 768.17 579.56
  C 776.10 585.49 780.75 595.67 784.45 604.76
  C 783.08 608.24 781.75 611.54 779.90 614.93
  C 776.29 621.53 773.15 628.06 769.50 633.94
  Q 760.33 648.72 757.02 653.27
  Q 754.16 657.22 742.00 672.26
  Q 737.94 677.29 723.89 692.13
  C 719.51 696.76 714.12 701.07 709.11 705.68
  Q 706.23 708.33 702.96 710.85
  Q 685.17 724.57 666.46 736.19
  Q 660.63 739.81 653.79 743.28
  Q 644.05 748.23 640.80 749.79
  Q 619.04 760.26 594.52 767.16
  Q 590.65 768.26 590.44 768.32
  Q 585.04 769.86 579.46 770.79
  C 582.11 762.43 587.75 754.63 589.66 747.84
  C 593.30 734.88 596.35 725.08 603.35 716.33
  Q 611.24 706.46 618.17 697.89
  C 624.36 690.21 630.65 679.82 634.94 673.10
  C 638.47 667.56 642.92 662.29 647.48 656.70
  C 654.36 648.25 658.91 641.50 664.53 632.29
  Q 674.34 616.19 677.34 598.28
  Q 681.82 583.61 682.15 579.52
  Q 683.94 556.89 683.24 539.37
  Q 682.68 525.29 681.36 519.32
  Q 677.56 502.19 676.79 499.74
  Q 674.01 490.93 667.21 477.05
  Q 663.12 468.71 653.65 456.86
  Q 655.29 457.69 656.71 458.84
  Q 657.23 459.25 657.28 459.18
  L 657.28 459.17
  Q 657.36 459.06 656.92 458.61
  C 653.87 455.43 654.07 452.60 656.18 448.83
  Q 658.53 444.64 660.51 440.69
  Q 661.47 433.71 660.78 427.04
  Q 661.22 425.71 660.84 424.51
  L 660.63 417.29
  L 660.61 416.50
  L 659.91 405.54
  L 659.88 402.46
  Q 659.50 384.74 658.93 379.75
  Q 657.11 363.87 652.24 350.47
  Q 648.21 339.38 639.73 325.74
  Q 636.48 320.50 631.44 314.22
  Q 625.09 306.30 622.18 303.33
  Q 606.91 287.75 588.08 277.18
  C 581.19 273.32 572.26 269.64 564.62 266.12
  Q 561.55 264.71 548.02 261.33
  Q 543.51 260.20 537.94 259.43
  Q 528.76 258.17 527.74 258.12
  Q 515.82 257.55 502.98 258.01
  Q 493.10 258.36 483.20 260.64
  Q 464.97 264.83 458.63 267.13
  Q 443.15 272.75 425.10 285.20
  C 410.44 264.13 403.60 236.95 405.78 211.37
  Q 416.66 207.04 420.73 205.75
  Q 447.42 197.29 469.38 194.40
  Q 479.31 193.10 480.34 192.94
  Q 487.48 191.85 491.35 191.90
  Q 496.91 191.97 502.99 191.39
  C 508.69 190.84 516.26 191.25 522.79 191.35
  Z"
/>
<path fill="#109ebe" d="
  M 523.71 191.34
  Q 523.26 191.42 522.79 191.35
  L 523.71 191.34
  Z"
/>
<path fill="#37f4e0" d="
  M 607.31 206.16
  Q 614.04 208.59 620.94 210.69
  Q 624.81 211.87 627.83 213.28
  C 632.53 215.48 636.82 216.75 640.48 218.97
  C 642.56 220.24 645.72 220.98 648.38 222.55
  C 653.59 225.63 664.01 230.83 670.98 235.18
  Q 687.73 245.64 703.40 257.91
  C 705.21 259.32 707.23 261.54 709.27 263.20
  C 720.40 272.28 729.01 281.61 738.61 293.10
  Q 744.45 300.08 750.48 308.91
  Q 760.49 323.54 768.79 337.15
  C 772.57 343.35 775.69 349.99 779.40 356.70
  Q 780.86 359.33 783.24 364.64
  Q 789.50 378.55 791.28 383.23
  Q 793.29 388.50 798.73 406.42
  Q 803.27 421.35 804.68 430.28
  C 806.06 439.06 807.77 449.11 808.38 458.82
  Q 809.62 478.39 808.33 507.53
  Q 807.65 522.71 805.69 533.01
  Q 801.88 552.97 798.44 566.55
  C 796.86 572.82 794.52 578.44 792.34 585.50
  C 790.40 591.78 787.19 598.39 784.45 604.76
  C 780.75 595.67 776.10 585.49 768.17 579.56
  Q 765.23 577.37 758.87 574.22
  C 751.04 570.35 747.15 562.76 744.48 554.91
  C 737.95 535.66 731.58 515.44 724.04 497.32
  C 718.72 484.50 710.68 470.05 704.83 457.24
  C 695.07 435.87 686.28 418.66 678.69 398.58
  C 670.79 377.70 666.03 364.24 655.46 347.71
  Q 647.27 334.91 638.67 320.68
  Q 633.91 312.79 629.18 306.04
  C 623.82 298.39 619.50 292.71 616.01 286.77
  C 607.13 271.68 604.55 259.92 597.46 237.39
  C 594.91 229.26 592.07 223.03 588.21 214.02
  C 585.98 208.81 589.08 206.60 593.90 206.25
  Q 600.52 205.79 607.31 206.16
  Z"
/>
<path fill="#2aaecb" d="
  M 405.78 211.37
  C 403.60 236.95 410.44 264.13 425.10 285.20
  Q 421.01 288.99 416.39 292.19
  C 414.42 293.55 413.55 295.19 411.75 296.43
  C 408.29 298.80 406.34 301.33 402.02 305.62
  Q 398.93 308.69 396.41 312.21
  Q 391.78 318.68 389.74 321.47
  Q 384.08 329.21 378.42 340.98
  C 377.02 343.89 376.18 347.03 374.85 349.96
  Q 361.22 364.66 345.79 376.94
  Q 343.57 378.70 341.94 380.78
  C 338.70 384.88 336.19 387.96 333.97 391.85
  Q 329.84 399.08 323.29 409.22
  Q 322.27 410.80 322.44 408.93
  Q 323.49 397.37 324.12 384.83
  C 325.60 355.48 313.56 329.85 302.98 303.27
  Q 300.64 297.41 297.45 285.76
  Q 308.42 273.45 315.16 267.41
  Q 334.27 250.28 353.62 238.14
  Q 366.21 230.24 383.71 221.30
  Q 387.86 219.17 394.69 216.27
  Q 400.20 213.93 405.78 211.37
  Z"
/>
<path fill="#248fbf" d="
  M 297.45 285.76
  Q 300.64 297.41 302.98 303.27
  C 313.56 329.85 325.60 355.48 324.12 384.83
  Q 323.49 397.37 322.44 408.93
  Q 322.27 410.80 323.29 409.22
  Q 329.84 399.08 333.97 391.85
  C 336.19 387.96 338.70 384.88 341.94 380.78
  Q 343.57 378.70 345.79 376.94
  Q 361.22 364.66 374.85 349.96
  L 367.87 374.42
  Q 360.78 385.73 351.40 395.12
  C 343.07 403.45 331.88 410.42 324.86 418.65
  Q 310.95 434.97 310.17 456.78
  C 309.79 467.54 313.13 478.08 311.04 488.78
  C 309.36 497.37 303.80 504.96 297.51 511.78
  C 290.83 519.00 284.15 521.44 277.06 512.89
  Q 273.14 508.18 269.99 501.90
  C 258.26 478.54 257.48 454.33 254.74 426.47
  C 252.97 408.48 250.13 385.81 245.17 365.97
  Q 249.59 355.58 255.08 345.77
  Q 260.31 336.39 265.05 328.43
  C 274.06 313.26 285.60 298.18 297.45 285.76
  Z"
/>
<path fill="#109ebe" d="
  M 614.66 390.49
  Q 614.31 390.81 614.58 391.54
  L 614.53 394.26
  Q 613.27 388.06 612.25 381.82
  Q 611.58 377.79 610.11 374.77
  C 602.74 359.61 594.51 348.02 578.86 340.46
  C 548.80 325.93 509.21 321.08 478.81 337.56
  C 465.00 345.05 453.03 356.69 442.49 367.72
  Q 436.58 373.91 433.68 379.37
  C 430.87 384.65 429.70 390.66 427.66 398.24
  Q 426.86 401.21 422.25 410.68
  Q 412.51 418.14 402.31 425.48
  Q 397.97 428.60 395.08 431.50
  Q 392.20 434.38 388.40 438.14
  Q 384.65 441.84 379.48 449.80
  C 375.98 455.18 370.84 459.06 367.94 464.59
  Q 367.20 465.98 366.32 467.32
  C 367.04 457.87 370.93 450.17 374.16 441.80
  Q 375.10 439.36 377.28 430.31
  Q 379.36 426.53 382.52 423.77
  C 384.49 422.06 385.51 420.22 387.40 418.66
  C 394.84 412.48 401.56 406.73 409.79 401.80
  Q 410.36 401.47 411.91 399.88
  Q 412.26 399.52 412.23 399.02
  C 412.00 395.74 411.03 393.17 411.01 390.27
  Q 410.95 381.33 412.31 377.27
  Q 416.64 364.39 417.92 362.18
  Q 420.88 357.03 423.16 352.70
  C 425.39 348.47 428.99 344.14 431.05 341.02
  Q 434.90 335.16 440.94 329.69
  C 444.33 326.62 446.58 324.07 450.10 321.56
  Q 474.27 304.34 503.19 301.88
  Q 505.61 301.67 521.95 301.91
  Q 526.19 301.98 529.99 302.73
  C 533.72 303.47 536.60 303.60 540.66 304.66
  Q 555.50 308.55 566.80 314.87
  C 583.36 324.13 597.97 340.19 606.41 356.07
  Q 614.53 371.34 614.66 390.49
  Z"
/>
<path fill="#17b8ca" d="
  M 614.53 394.26
  Q 614.51 397.62 615.61 398.80
  L 616.20 399.41
  Q 616.54 399.77 616.17 400.09
  Q 615.64 400.57 616.37 401.73
  Q 617.04 402.79 618.63 403.73
  Q 626.16 408.17 632.51 412.58
  Q 632.64 412.67 632.73 412.63
  Q 632.83 412.59 632.90 412.40
  A 0.33 0.33 0.0 0 0 632.80 412.00
  L 619.74 401.84
  Q 623.13 403.39 628.32 407.19
  Q 633.35 410.87 635.45 413.35
  L 655.00 433.12
  L 660.51 440.69
  Q 658.53 444.64 656.18 448.83
  C 654.07 452.60 653.87 455.43 656.92 458.61
  Q 657.36 459.06 657.28 459.17
  L 657.28 459.18
  Q 657.23 459.25 656.71 458.84
  Q 655.29 457.69 653.65 456.86
  C 646.08 445.50 639.04 438.27 628.26 427.50
  Q 622.05 421.30 609.84 412.96
  Q 606.57 410.73 604.31 409.02
  C 601.17 406.64 596.23 403.39 592.09 401.31
  Q 578.58 394.55 564.27 389.96
  Q 552.15 386.09 538.26 384.25
  Q 529.79 383.13 524.73 382.59
  C 519.61 382.05 513.41 382.42 507.77 382.35
  C 504.54 382.31 502.12 383.12 499.21 383.04
  Q 497.67 383.00 492.82 383.70
  Q 488.51 384.32 485.64 384.64
  C 475.40 385.81 465.19 389.89 454.37 393.89
  Q 446.41 396.83 437.13 401.44
  Q 433.72 403.14 429.56 405.87
  Q 425.97 408.22 422.25 410.68
  Q 426.86 401.21 427.66 398.24
  C 429.70 390.66 430.87 384.65 433.68 379.37
  Q 436.58 373.91 442.49 367.72
  C 453.03 356.69 465.00 345.05 478.81 337.56
  C 509.21 321.08 548.80 325.93 578.86 340.46
  C 594.51 348.02 602.74 359.61 610.11 374.77
  Q 611.58 377.79 612.25 381.82
  Q 613.27 388.06 614.53 394.26
  Z"
/>
<path fill="#287eb4" d="
  M 245.17 365.97
  C 250.13 385.81 252.97 408.48 254.74 426.47
  C 257.48 454.33 258.26 478.54 269.99 501.90
  Q 273.14 508.18 277.06 512.89
  C 284.15 521.44 290.83 519.00 297.51 511.78
  C 303.80 504.96 309.36 497.37 311.04 488.78
  C 313.13 478.08 309.79 467.54 310.17 456.78
  Q 310.95 434.97 324.86 418.65
  C 331.88 410.42 343.07 403.45 351.40 395.12
  Q 360.78 385.73 367.87 374.42
  L 365.80 391.97
  Q 364.68 411.95 365.10 434.72
  Q 365.16 438.01 366.04 440.35
  L 366.10 440.96
  A 1.15 1.14 -32.7 0 0 368.23 441.42
  Q 372.10 434.72 377.28 430.31
  Q 375.10 439.36 374.16 441.80
  C 370.93 450.17 367.04 457.87 366.32 467.32
  C 363.50 472.69 360.06 478.21 357.77 483.32
  Q 351.00 498.41 347.66 514.73
  Q 339.36 519.45 333.72 523.71
  C 312.63 539.63 304.35 567.23 310.69 592.60
  Q 314.63 608.32 323.34 631.59
  C 329.76 648.74 338.98 660.02 354.33 669.53
  C 365.66 676.55 378.24 683.77 390.81 688.58
  C 398.55 691.53 408.82 693.72 417.77 695.97
  Q 422.29 697.10 435.10 701.95
  C 435.66 702.17 436.15 702.08 436.77 702.35
  Q 440.61 704.03 442.56 704.88
  C 444.31 705.63 446.20 705.77 448.01 706.74
  Q 450.31 707.97 451.85 708.48
  Q 458.64 710.72 464.94 712.89
  Q 466.82 713.54 468.83 713.31
  Q 469.04 713.29 469.17 713.11
  Q 469.31 712.90 469.29 712.64
  A 0.41 0.41 0.0 0 0 469.00 712.29
  C 460.59 709.71 454.68 708.08 447.93 705.17
  Q 441.24 702.29 434.19 699.04
  Q 429.88 697.04 427.99 694.72
  Q 440.77 701.71 445.28 703.25
  Q 447.52 704.01 449.04 704.72
  Q 452.03 706.11 452.72 706.36
  Q 462.00 709.63 473.22 712.45
  Q 477.44 713.51 484.43 714.41
  Q 490.10 715.15 495.68 716.25
  Q 502.45 717.20 509.24 717.63
  Q 517.00 718.12 524.55 716.98
  Q 531.74 717.18 537.48 715.88
  Q 538.40 715.68 538.82 716.07
  Q 539.25 716.48 538.68 716.64
  Q 535.81 717.47 534.48 717.58
  Q 528.63 718.06 521.19 718.84
  C 517.55 719.22 514.35 719.13 510.33 719.12
  Q 509.31 719.12 504.78 718.50
  Q 500.82 717.95 497.50 718.38
  Q 496.17 718.56 492.97 717.85
  C 490.52 717.31 487.22 717.48 484.35 716.42
  C 483.17 715.98 482.46 716.27 481.42 716.06
  Q 480.69 715.91 479.36 716.62
  Q 474.51 719.19 459.87 726.39
  Q 435.57 738.35 409.38 732.72
  Q 386.14 727.73 365.73 720.05
  C 355.97 716.37 346.63 709.39 339.47 702.79
  C 321.16 685.90 306.19 671.58 287.42 659.29
  Q 282.39 655.99 272.77 652.25
  Q 271.11 650.58 268.47 646.54
  Q 257.36 629.53 249.62 612.99
  C 244.88 602.86 239.58 590.82 235.59 578.89
  C 233.82 573.60 230.76 564.86 229.18 558.29
  Q 224.59 539.19 222.44 523.20
  Q 220.83 511.15 220.20 494.00
  Q 219.34 470.76 222.27 446.26
  Q 224.48 427.76 230.12 409.22
  C 232.89 400.11 234.86 392.58 237.24 384.25
  Q 238.53 379.75 245.17 365.97
  Z"
/>
<path fill="#216da3" d="
  M 614.66 390.49
  L 614.58 391.54
  Q 614.31 390.81 614.66 390.49
  Z"
/>
<path fill="#216da3" d="
  M 365.80 391.97
  Q 366.74 398.55 366.52 405.27
  Q 366.16 416.63 366.16 416.75
  Q 366.19 428.51 366.04 440.35
  Q 365.16 438.01 365.10 434.72
  Q 364.68 411.95 365.80 391.97
  Z"
/>
<path fill="#216da3" d="
  M 619.74 401.84
  L 632.80 412.00
  A 0.33 0.33 0.0 0 1 632.90 412.40
  Q 632.83 412.59 632.73 412.63
  Q 632.64 412.67 632.51 412.58
  Q 626.16 408.17 618.63 403.73
  Q 617.04 402.79 616.37 401.73
  Q 615.64 400.57 616.17 400.09
  Q 616.54 399.77 616.20 399.41
  L 615.61 398.80
  Q 618.51 400.21 619.74 401.84
  Z"
/>
<path fill="#287eb4" d="
  M 659.88 402.46
  L 659.91 405.54
  L 659.88 402.46
  Z"
/>
<path fill="#2dd8d7" d="
  M 655.00 433.12
  L 635.45 413.35
  Q 644.58 419.62 646.76 422.25
  Q 649.93 426.07 652.98 429.98
  Q 654.00 431.28 655.00 433.12
  Z"
/>
<path fill="#216da3" d="
  M 660.63 417.29
  L 660.61 416.50
  L 660.63 417.29
  Z"
/>
<path fill="#248fbf" d="
  M 660.78 427.04
  L 660.84 424.51
  Q 661.22 425.71 660.78 427.04
  Z"
/>
<path fill="#248fbf" d="
  M 521.11 483.57
  Q 513.66 484.34 506.38 483.56
  Q 513.61 482.26 521.11 483.57
  Z"
/>
<path fill="#109ebe" d="
  M 506.38 483.56
  Q 513.66 484.34 521.11 483.57
  L 530.27 484.73
  Q 536.88 487.94 538.57 489.17
  Q 542.74 492.21 550.49 501.89
  Q 553.80 506.47 554.54 509.51
  C 557.30 520.96 557.04 533.27 551.45 544.00
  Q 546.21 554.04 535.85 558.97
  C 533.34 560.16 532.75 561.55 533.13 564.21
  Q 532.57 566.24 533.11 568.32
  L 533.12 572.54
  L 533.10 573.29
  L 532.88 584.96
  Q 532.57 585.37 532.76 586.05
  L 533.13 601.77
  L 533.14 605.76
  L 533.86 628.98
  A 2.08 2.07 -0.4 0 1 531.74 631.12
  Q 512.47 630.69 494.75 631.77
  A 0.68 0.68 0.0 0 1 494.03 631.09
  L 493.90 601.79
  Q 494.39 599.66 493.92 597.44
  Q 493.67 595.98 493.97 594.54
  L 493.95 576.77
  L 493.88 572.79
  Q 494.08 572.23 493.94 571.53
  L 493.94 568.22
  Q 494.12 567.05 493.86 566.02
  C 493.69 563.39 493.77 560.55 490.91 559.61
  Q 481.34 556.46 476.71 547.62
  Q 471.01 536.74 471.01 524.37
  Q 471.01 521.97 471.49 518.96
  Q 472.28 513.98 472.36 513.54
  C 473.54 507.56 475.73 501.70 479.81 497.20
  Q 484.39 492.14 487.63 490.12
  Q 495.26 485.38 506.38 483.56
  Z"
/>
<path fill="#2aaecb" d="
  M 550.49 501.89
  Q 542.74 492.21 538.57 489.17
  Q 536.88 487.94 530.27 484.73
  Q 542.75 487.57 550.49 501.89
  Z"
/>
<path fill="#216da3" d="
  M 347.66 514.73
  Q 343.89 533.05 343.69 549.00
  Q 343.62 554.78 344.24 571.50
  Q 344.37 575.07 347.11 588.09
  Q 349.03 597.24 351.52 604.18
  Q 365.04 641.94 392.61 668.13
  Q 407.35 682.11 427.99 694.72
  Q 429.88 697.04 434.19 699.04
  Q 441.24 702.29 447.93 705.17
  C 454.68 708.08 460.59 709.71 469.00 712.29
  A 0.41 0.41 0.0 0 1 469.29 712.64
  Q 469.31 712.90 469.17 713.11
  Q 469.04 713.29 468.83 713.31
  Q 466.82 713.54 464.94 712.89
  Q 458.64 710.72 451.85 708.48
  Q 450.31 707.97 448.01 706.74
  C 446.20 705.77 444.31 705.63 442.56 704.88
  Q 440.61 704.03 436.77 702.35
  C 436.15 702.08 435.66 702.17 435.10 701.95
  Q 422.29 697.10 417.77 695.97
  C 408.82 693.72 398.55 691.53 390.81 688.58
  C 378.24 683.77 365.66 676.55 354.33 669.53
  C 338.98 660.02 329.76 648.74 323.34 631.59
  Q 314.63 608.32 310.69 592.60
  C 304.35 567.23 312.63 539.63 333.72 523.71
  Q 339.36 519.45 347.66 514.73
  Z"
/>
<ellipse fill="#248fbf" cx="0.00" cy="0.00" transform="translate(404.88,546.19) rotate(-7.6)" rx="12.99" ry="12.23"/>
<ellipse fill="#248fbf" cx="0.00" cy="0.00" transform="translate(619.24,547.16) rotate(-6.1)" rx="12.75" ry="12.09"/>
<path fill="#216da3" d="
  M 533.13 564.21
  L 533.11 568.32
  Q 532.57 566.24 533.13 564.21
  Z"
/>
<path fill="#216da3" d="
  M 493.94 568.22
  L 493.86 566.02
  Q 494.12 567.05 493.94 568.22
  Z"
/>
<path fill="#216da3" d="
  M 493.94 571.53
  Q 494.08 572.23 493.88 572.79
  Q 493.80 572.14 493.94 571.53
  Z"
/>
<path fill="#216da3" d="
  M 533.12 572.54
  L 533.10 573.29
  L 533.12 572.54
  Z"
/>
<path fill="#216da3" d="
  M 493.97 594.54
  L 493.95 576.77
  L 493.97 594.54
  Z"
/>
<path fill="#216da3" d="
  M 532.88 584.96
  Q 533.01 585.60 532.76 586.05
  Q 532.57 585.37 532.88 584.96
  Z"
/>
<path fill="#216da3" d="
  M 493.90 601.79
  L 493.92 597.44
  Q 494.39 599.66 493.90 601.79
  Z"
/>
<path fill="#2aaecb" d="
  M 677.34 598.28
  Q 674.34 616.19 664.53 632.29
  C 658.91 641.50 654.36 648.25 647.48 656.70
  C 642.92 662.29 638.47 667.56 634.94 673.10
  C 630.65 679.82 624.36 690.21 618.17 697.89
  Q 611.24 706.46 603.35 716.33
  C 596.35 725.08 593.30 734.88 589.66 747.84
  C 587.75 754.63 582.11 762.43 579.46 770.79
  C 572.51 772.32 565.50 773.26 558.54 774.67
  C 556.37 775.11 554.27 774.92 552.35 775.42
  C 549.85 776.06 546.59 775.66 543.65 776.39
  C 542.36 776.72 541.43 776.97 540.36 777.00
  Q 533.84 777.16 529.13 777.54
  Q 522.20 778.10 517.90 778.11
  C 505.21 778.13 495.26 778.44 484.02 776.67
  C 480.02 776.04 475.46 775.91 471.17 775.04
  Q 489.46 767.80 507.87 761.20
  C 523.14 755.72 536.83 749.26 548.52 739.17
  C 558.27 730.76 567.73 718.93 576.47 708.37
  Q 578.04 706.47 580.07 705.63
  C 585.16 703.51 589.13 702.33 593.68 699.62
  Q 599.62 696.07 606.91 692.20
  C 611.04 690.00 614.72 686.20 618.09 683.83
  Q 627.51 677.18 634.55 668.02
  C 639.19 663.28 644.21 658.18 647.95 652.65
  C 649.49 650.36 651.17 648.85 652.42 646.87
  C 654.30 643.92 657.18 640.25 659.53 636.38
  Q 660.81 634.25 662.92 630.93
  Q 671.04 618.12 677.34 598.28
  Z"
/>
<path fill="#216da3" d="
  M 533.14 605.76
  L 533.13 601.77
  L 533.14 605.76
  Z"
/>
<path fill="#248fbf" d="
  M 524.55 716.98
  Q 529.38 717.31 533.07 716.03
  Q 547.40 713.68 551.25 712.95
  Q 561.87 710.92 574.13 706.39
  Q 575.52 705.87 589.34 699.56
  Q 593.95 697.46 598.62 694.71
  Q 606.21 690.23 607.62 689.36
  Q 615.39 684.56 627.25 674.71
  Q 628.93 673.32 630.89 671.37
  Q 632.63 669.63 634.55 668.02
  Q 627.51 677.18 618.09 683.83
  C 614.72 686.20 611.04 690.00 606.91 692.20
  Q 599.62 696.07 593.68 699.62
  C 589.13 702.33 585.16 703.51 580.07 705.63
  Q 578.04 706.47 576.47 708.37
  C 567.73 718.93 558.27 730.76 548.52 739.17
  C 536.83 749.26 523.14 755.72 507.87 761.20
  Q 489.46 767.80 471.17 775.04
  Q 465.13 774.56 462.00 773.97
  Q 424.00 766.90 389.30 751.19
  Q 377.90 746.03 361.94 736.52
  Q 357.01 733.58 355.02 732.11
  C 352.07 729.92 348.74 728.18 345.75 725.99
  Q 324.36 710.34 316.90 703.60
  C 305.86 693.64 300.31 687.12 291.35 676.89
  Q 282.06 666.28 272.77 652.25
  Q 282.39 655.99 287.42 659.29
  C 306.19 671.58 321.16 685.90 339.47 702.79
  C 346.63 709.39 355.97 716.37 365.73 720.05
  Q 386.14 727.73 409.38 732.72
  Q 435.57 738.35 459.87 726.39
  Q 474.51 719.19 479.36 716.62
  Q 480.69 715.91 481.42 716.06
  C 482.46 716.27 483.17 715.98 484.35 716.42
  C 487.22 717.48 490.52 717.31 492.97 717.85
  Q 496.17 718.56 497.50 718.38
  Q 500.82 717.95 504.78 718.50
  Q 509.31 719.12 510.33 719.12
  C 514.35 719.13 517.55 719.22 521.19 718.84
  Q 528.63 718.06 534.48 717.58
  Q 535.81 717.47 538.68 716.64
  Q 539.25 716.48 538.82 716.07
  Q 538.40 715.68 537.48 715.88
  Q 531.74 717.18 524.55 716.98
  Z"
/>
<path fill="#2aaecb" d="
  M 533.07 716.03
  Q 529.38 717.31 524.55 716.98
  Q 517.00 718.12 509.24 717.63
  Q 502.45 717.20 495.68 716.25
  Q 501.49 716.00 503.49 716.27
  Q 512.76 717.54 522.03 716.62
  C 526.08 716.22 529.34 716.13 533.07 716.03
  Z"
/>
</svg>
